<?xml version="1.0" encoding="UTF-8" standalone="no"?>
<!-- Created with Inkscape (http://www.inkscape.org/) -->

<svg
   width="52.836056mm"
   height="21.790337mm"
   viewBox="0 0 52.836056 21.790337"
   version="1.1"
   id="svg1"
   xml:space="preserve"
   xmlns:inkscape="http://www.inkscape.org/namespaces/inkscape"
   xmlns:sodipodi="http://sodipodi.sourceforge.net/DTD/sodipodi-0.dtd"
   xmlns="http://www.w3.org/2000/svg"
   xmlns:svg="http://www.w3.org/2000/svg"><sodipodi:namedview
     id="namedview1"
     pagecolor="#ffffff"
     bordercolor="#000000"
     borderopacity="0.25"
     inkscape:showpageshadow="2"
     inkscape:pageopacity="0.0"
     inkscape:pagecheckerboard="0"
     inkscape:deskcolor="#d1d1d1"
     inkscape:document-units="mm" /><defs
     id="defs1" /><g
     inkscape:label="Camada 1"
     inkscape:groupmode="layer"
     id="layer1"
     transform="translate(4.0048791e-6,-21.938087)"><path
       style="fill:#403b33;fill-opacity:1;stroke:#403b33;stroke-width:0.217257;stroke-dasharray:none;stroke-opacity:1"
       d="m 7.812184,43.48418 c 0.899166,-0.08596 1.404294,-0.185898 1.517528,-0.300241 0.09335,-0.09426 0.422978,-0.740464 0.732504,-1.436004 l 0.56277,-1.26462 0.448936,0.03616 c 0.246917,0.0199 1.121486,0.260722 1.943487,0.535191 2.981263,0.995469 3.76239,1.174354 5.807788,1.33001 1.988628,0.151337 8.194757,-0.05066 9.137692,-0.297417 0.463653,-0.121329 1.556639,-0.208945 3.333989,-0.267252 2.682979,-0.08802 2.98822,-0.138536 3.639597,-0.602358 0.372122,-0.264975 0.843439,-1.112504 0.957865,-1.722454 0.06105,-0.325429 0.172024,-0.451999 0.59133,-0.67444 0.815006,-0.432359 1.496755,-1.270234 1.655421,-2.034513 0.07327,-0.352965 0.111397,-0.790478 0.08471,-0.972253 -0.04314,-0.294022 0.0065,-0.357157 0.450469,-0.572046 0.644363,-0.311934 0.990541,-0.902122 1.294983,-2.207794 0.335441,-1.43859 0.316852,-2.309383 -0.05983,-2.803243 -0.224061,-0.29377 -0.301157,-0.541735 -0.319742,-1.0284 -0.02238,-0.585903 -0.0639,-0.677868 -0.480755,-1.064773 -0.338391,-0.314071 -0.723575,-0.507347 -1.490953,-0.748125 -0.569079,-0.178555 -1.075918,-0.362858 -1.12631,-0.40956 -0.08066,-0.07476 1.665859,-0.273683 2.275961,-0.259227 2.743967,0.06503 11.760119,0.109837 12.163769,0.06045 1.06391,-0.130158 1.70473,-0.804177 1.78216,-1.874464 0.0948,-1.30977 -0.35176,-1.760756 -1.94702,-1.966616 -0.52923,-0.06829 -1.58306,-0.227121 -2.34183,-0.352952 -1.713866,-0.284225 -5.434065,-0.443079 -12.093705,-0.516412 -4.724644,-0.05202 -5.1057,-0.04037 -7.844617,0.240356 -1.583309,0.162274 -3.291851,0.29504 -3.796752,0.29504 -1.879613,0 -5.117265,0.626556 -6.96064,1.347038 -0.569079,0.222423 -1.784838,0.731492 -2.701684,1.131266 -0.916847,0.399771 -1.979426,0.813029 -2.361286,0.918346 -0.67394,0.185877 -0.717739,0.184074 -1.494547,-0.06147 -0.694093,-0.219399 -1.196809,-0.265505 -3.789356,-0.347555 -1.713416,-0.05423 -3.345342,-0.05071 -3.823826,0.0083 -1.064508,0.131163 -1.908383,0.487651 -2.08811,0.882108 -0.310191,0.680793 -1.05334099,4.064825 -1.15544299,5.261461 -0.05936,0.6957 -0.140709,3.153209 -0.180776,5.461137 -0.07722,4.447575 -0.0013,5.677928 0.367326,5.947423 0.112104,0.08197 0.52922999,0.14664 0.95334999,0.1478 0.414722,0.0013 1.245518,0.07781 1.846213,0.170386 1.250606,0.192742 2.580011,0.19621 4.509337,0.01178 z M 3.532778,43.01255 C 2.932083,42.91997 2.063907,42.843298 1.6035,42.842164 c -0.564491,-0.0013 -0.85357799,-0.04886 -0.88768199,-0.145767 -0.194037,-0.551347 -0.27527,-3.694036 -0.171603,-6.639244 0.140109,-3.980677 0.259404,-5.182075 0.68495999,-6.897915 0.180345,-0.727156 0.387156,-1.615047 0.459576,-1.973095 0.124585,-0.61595 0.157646,-0.661388 0.614213,-0.844131 0.265397,-0.106226 0.884706,-0.233708 1.376241,-0.283291 1.049839,-0.105899 6.345613,0.05821 7.096384,0.219912 0.284537,0.06128 0.569074,0.119761 0.632305,0.129955 0.06323,0.01021 -0.135664,0.06059 -0.441996,0.111996 -0.873604,0.14661 -1.17371,0.531468 -1.747648,2.24119 -0.516377,1.538255 -0.758471,3.735355 -0.822874,7.467829 -0.05246,3.040953 -0.03572,3.465352 0.190608,4.82854 0.136473,0.822001 0.274574,1.585082 0.306893,1.695736 0.05223,0.178825 -0.04115,0.202453 -0.839968,0.21256 -0.494299,0.0062 -1.183265,0.0507 -1.531037,0.09878 -1.019453,0.140927 -1.825069,0.126731 -2.989094,-0.05267 z m 3.046576,-0.394144 c 0.189695,-0.0528 0.694106,-0.102115 1.120912,-0.109597 0.42681,-0.0074 0.776016,-0.05275 0.776016,-0.100583 0,-0.04784 -0.05591,-0.267708 -0.124253,-0.488602 -0.06834,-0.22089 -0.161792,-0.815493 -0.207668,-1.321342 -0.08026,-0.884906 -0.08821,-0.904489 -0.21027,-0.517341 l -0.126865,0.402377 -0.02551,-0.402377 -0.02551,-0.402378 -0.07109,0.392858 -0.07109,0.392858 -0.152714,-0.287171 c -0.20619,-0.387717 -0.715771,-0.670995 -1.207041,-0.670995 -0.508021,0 -1.064591,0.446408 -1.35576,1.087416 l -0.211048,0.464617 -0.01686,-0.344895 c -0.0109,-0.223236 -0.04788,-0.13234 -0.104813,0.257688 -0.04838,0.331422 -0.117892,0.680628 -0.154496,0.776017 -0.0864,0.225152 -0.528017,0.222049 -0.853599,-0.006 C 3.082384,41.40804 2.960755,40.97479 2.875038,39.309362 2.794148,37.737646 2.792658,37.731001 2.699686,38.528909 c -0.05157,0.442619 -0.067,1.166897 -0.03428,1.609515 0.04137,0.559264 0.02481,0.746326 -0.05424,0.613209 -0.06255,-0.105358 -0.151924,-1.140044 -0.198604,-2.299307 -0.07037,-1.747899 -0.09733,-1.970362 -0.157849,-1.303 -0.04015,0.442618 -0.08753,1.322101 -0.105301,1.954411 -0.03102,1.102672 -0.03785,1.065086 -0.167914,-0.919723 -0.0892,-1.361338 -0.144297,-1.794028 -0.161035,-1.264616 -0.01399,0.442614 -0.06824,1.011693 -0.120556,1.264616 -0.06764,0.327032 -0.102245,-0.08806 -0.1198,-1.437065 -0.03193,-2.454832 -0.202157,-1.983406 -0.228311,0.632309 -0.01208,1.208888 -0.05723,1.8667 -0.118344,1.724479 -0.05434,-0.126461 -0.102442,-1.286175 -0.106886,-2.577139 -0.0044,-1.290965 -0.03293,-2.322336 -0.06335,-2.291938 -0.03041,0.03037 -0.10515999,1.526384 -0.16614399,3.324413 -0.103793,3.060167 -0.05554,4.582157 0.15186699,4.790233 0.172089,0.172642 5.028034,0.40893 5.530394,0.269104 z M 5.343477,41.914463 C 4.938575,41.475685 4.91804,40.85211 5.290287,40.29913 5.655788,39.756169 6.076015,39.569923 6.56872,39.732531 c 0.547893,0.180823 0.783724,0.494882 0.843462,1.123255 0.06029,0.634113 -0.218483,1.095963 -0.823079,1.363653 -0.469935,0.208068 -0.860416,0.112466 -1.245628,-0.304976 z m 1.257102,0.120082 c 0.284673,-0.114699 0.541918,-0.521882 0.436979,-0.691677 -0.04552,-0.07365 -0.144668,-0.07282 -0.285172,0.0021 -0.11847,0.0634 -0.309335,0.113443 -0.424143,0.1112 -0.166896,-0.0031 -0.151123,-0.03702 0.07867,-0.168374 0.25682,-0.146809 0.262937,-0.16512 0.05748,-0.172028 l -0.229932,-0.0078 0.229932,-0.180684 c 0.223258,-0.175435 0.221615,-0.178186 -0.05658,-0.09472 -0.256381,0.07692 -0.270011,0.06608 -0.129628,-0.103075 0.179549,-0.216346 0.01547,-0.259722 -0.193172,-0.05108 -0.102672,0.102671 -0.137959,0.103705 -0.137959,0.0039 0,-0.07366 0.107899,-0.191659 0.239774,-0.262238 0.13188,-0.07058 0.208845,-0.159258 0.171034,-0.197069 -0.0378,-0.03781 -0.22331,0.04554 -0.412224,0.185207 -0.401908,0.297143 -0.451178,0.20407 -0.09352,-0.176648 0.347155,-0.369528 0.081,-0.33577 -0.291776,0.03702 -0.235821,0.235819 -0.303087,0.415595 -0.303087,0.809982 0,0.831751 0.596827,1.256272 1.343322,0.955502 z M 6.406908,41.684839 c 0.09484,-0.06438 0.275916,-0.169977 0.402378,-0.234659 0.180697,-0.09242 0.17182,-0.06699 -0.0415,0.118813 -0.149274,0.130033 -0.330345,0.235629 -0.402379,0.234664 -0.07204,-8.69e-4 -0.05337,-0.05443 0.0415,-0.118818 z m -1.918937,-5.28279 c 0.03941,-1.485926 0.09699,-2.882755 0.127899,-3.104062 0.03089,-0.221306 -0.0209,-0.0661 -0.115151,0.344896 -0.209448,0.913393 -0.347055,4.49794 -0.194183,5.058472 0.08218,0.30134 0.127742,-0.276021 0.181435,-2.299306 z M 4.95577,36.20086 c 0.04267,-1.248812 0.09926,-2.736172 0.125756,-3.30525 l 0.04818,-1.034688 -0.1601,1.092169 c -0.210375,1.435109 -0.363698,5.518332 -0.207217,5.518332 0.07123,0 0.145658,-0.873961 0.193378,-2.270563 z m 2.403502,-1.700298 c 0.05942,-2.029995 0.213921,-3.411016 0.597584,-5.341324 0.177603,-0.893571 -0.34713,0.972451 -0.598079,2.126856 -0.251336,1.156182 -0.299768,1.668149 -0.299085,3.161544 4.34e-4,0.980082 0.05293,1.909247 0.116619,2.064816 0.08599,0.210027 0.133092,-0.307966 0.182961,-2.011892 z m 0.451621,0.636867 c 0.04504,-0.347767 0.140123,-1.304855 0.211305,-2.126856 0.146214,-1.688549 0.585147,-4.428184 0.846424,-5.283038 0.283348,-0.927041 0.116998,-0.729685 -0.207353,0.246017 -0.660067,1.985557 -1.034766,4.556653 -0.968637,6.646536 0.03337,1.054766 0.04314,1.097466 0.118261,0.517341 z M 6.789445,33.452248 c 0.04081,-0.811998 0.09894,-1.7609 0.129221,-2.108672 l 0.05506,-0.632305 -0.162165,0.747273 c -0.222259,1.02419 -0.349545,3.017507 -0.208749,3.269095 0.08032,0.143516 0.133678,-0.221129 0.18664,-1.275391 z M 1.377457,32.320782 c 0.045,-0.189692 0.136502,-0.810505 0.203348,-1.379584 0.06685,-0.569079 0.225252,-1.648686 0.352009,-2.399132 0.126761,-0.750445 0.214102,-1.413544 0.194102,-1.473555 -0.05805,-0.174166 -0.657464,2.73983 -0.789182,3.836579 -0.06596,0.549217 -0.102415,1.17003 -0.08101,1.379584 l 0.03893,0.381003 z M 2.191515,30.57714 c 0.04215,-0.04215 0.07925,-0.313758 0.08243,-0.603566 0.0031,-0.289808 0.09516,-1.133652 0.204377,-1.875208 0.219952,-1.493299 0.137516,-1.669017 -0.14209,-0.30286 -0.185507,0.906379 -0.374425,2.858278 -0.276646,2.858278 0.03041,0 0.08977,-0.0345 0.131927,-0.07664 z m 0.817531,-2.976319 c 0.04327,-0.230718 0.05571,-0.442483 0.02759,-0.470583 -0.02812,-0.02811 -0.08651,0.137672 -0.12979,0.36839 -0.04327,0.230718 -0.05571,0.442479 -0.02759,0.470583 0.02812,0.02811 0.08651,-0.137675 0.12979,-0.36839 z m 6.091138,14.932321 c 0.04054,-0.1056 0.01582,-0.227755 -0.05489,-0.271459 -0.08774,-0.05422 0.0084,-0.394826 0.302782,-1.072621 0.395312,-0.910177 0.620022,-1.215831 0.624509,-0.849453 0.0013,0.09732 0.03628,0.08912 0.108716,-0.02542 0.05883,-0.09302 0.137333,-0.13874 0.174462,-0.101614 0.0371,0.03716 -0.142207,0.487773 -0.398524,1.001434 -0.256315,0.513661 -0.515407,1.063795 -0.575753,1.222523 -0.06035,0.158729 -0.142407,0.288597 -0.182352,0.288597 -0.03993,0 -0.03945,-0.0864 8.69e-4,-0.191995 z m 0.387961,-0.95495 c 0.132005,-0.317643 0.215175,-0.577535 0.184816,-0.577535 -0.07682,0 -0.522777,1.057121 -0.468746,1.111154 0.02416,0.02416 0.151924,-0.215976 0.28393,-0.533619 z m 6.863257,0.06213 C 15.592631,41.466425 14.368836,41.09932 13.631856,40.824534 12.252816,40.31036 11.674752,40.175869 9.943533,39.966424 8.762305,39.823517 8.591246,39.769446 8.591246,39.538992 c 0,-0.111113 0.06567,-0.147248 0.184639,-0.101603 0.101551,0.03898 0.942235,0.200377 1.868185,0.358684 0.92595,0.158306 1.812885,0.31374 1.970961,0.345404 0.205608,0.04119 0.238331,0.02789 0.114965,-0.04675 -0.09485,-0.05739 -0.705822,-0.212459 -1.357723,-0.344617 -1.237562,-0.25088 -1.834785,-0.467407 -1.286476,-0.466425 0.158076,2.83e-4 0.699373,0.07391 1.202884,0.163621 0.503511,0.08971 0.932446,0.146131 0.953194,0.125388 0.02076,-0.02078 -0.494682,-0.168931 -1.145402,-0.329289 -1.29155,-0.318286 -1.878865,-0.516946 -1.790255,-0.605551 0.03137,-0.03137 0.336031,0.01534 0.676995,0.1038 0.340959,0.08848 0.85273,0.191877 1.137272,0.22978 l 0.517341,0.06892 -0.63231,-0.207815 c -0.701801,-0.230653 -1.33169,-0.535508 -1.427809,-0.691034 -0.03455,-0.05589 0.233781,0.01551 0.596279,0.158632 0.523473,0.206704 1.875569,0.475403 1.72819,0.343436 -0.01894,-0.01694 -0.438038,-0.197895 -0.931355,-0.402104 -0.493313,-0.204204 -0.87556,-0.392653 -0.849442,-0.418772 0.02611,-0.02611 0.196936,0.0095 0.379592,0.07916 0.487647,0.185989 1.313963,0.325212 1.242338,0.209318 -0.03385,-0.05479 -0.113596,-0.09961 -0.177177,-0.09961 -0.180989,0 -1.263347,-0.485243 -1.207325,-0.541266 0.02755,-0.02755 0.289599,0.03124 0.582345,0.130629 0.292745,0.09939 0.672723,0.176621 0.8444,0.171629 0.231479,-0.0067 0.133891,-0.0711 -0.377658,-0.24909 -0.732734,-0.25496 -0.716071,-0.414553 0.0219,-0.209631 0.668096,0.185525 0.859634,0.130467 0.224639,-0.06457 -0.68167,-0.209376 -0.660584,-0.288019 0.04089,-0.15245 0.284541,0.05498 0.75015,0.09619 1.034687,0.09155 l 0.517346,-0.0085 -0.582992,-0.09762 c -1.165329,-0.195128 -1.18602,-0.308662 -0.04932,-0.270612 0.600695,0.02012 0.974998,0.0101 0.831791,-0.02234 -0.143207,-0.03237 -0.230688,-0.106907 -0.194402,-0.165619 0.03862,-0.06252 1.52794,-0.09997 3.594368,-0.09039 2.888052,0.01338 3.319754,0.0345 2.378745,0.116303 -0.63231,0.05497 -1.485927,0.144055 -1.896925,0.197965 -0.684056,0.08973 -0.611109,0.100767 0.862237,0.130533 1.346755,0.0272 1.496902,0.04649 0.919724,0.118096 -0.379388,0.04708 -1.0002,0.09716 -1.379583,0.111283 -0.680237,0.02534 -0.683422,0.02703 -0.229933,0.120821 0.252922,0.05231 0.718535,0.106531 1.034688,0.120483 l 0.574828,0.02538 -0.63231,0.06917 -0.63231,0.06918 0.785594,0.09471 c 0.432077,0.0521 1.104626,0.06126 1.494551,0.02038 0.507007,-0.05316 0.659831,-0.04019 0.536503,0.04555 -0.09485,0.06593 -0.638054,0.124293 -1.207133,0.129707 -1.528569,0.01455 -0.8739,0.202366 0.804756,0.230892 1.131104,0.0192 1.27605,0.03958 0.804754,0.112974 -0.316152,0.04924 -0.885231,0.0977 -1.264614,0.107681 -1.140326,0.03003 -0.39065,0.212773 0.977205,0.238231 1.003262,0.01869 1.11976,0.03802 0.689791,0.114525 -0.284542,0.05063 -0.763086,0.09589 -1.063431,0.100573 -0.300343,0.0047 -0.546084,0.06026 -0.546084,0.123485 0,0.06852 0.499327,0.121468 1.235876,0.131054 l 1.235876,0.01607 -1.134713,0.09352 c -0.624092,0.05143 -1.162994,0.121799 -1.197554,0.156365 -0.03454,0.03454 0.527795,0.06906 1.249679,0.07665 1.357775,0.0143 1.331082,0.04888 -0.239513,0.310517 -0.581519,0.09687 -0.521495,0.107607 0.747274,0.133657 1.074796,0.02207 1.277989,0.04934 0.919723,0.123441 -0.252923,0.05231 -0.718531,0.103383 -1.034687,0.113482 -0.569323,0.01816 -0.571247,0.01951 -0.200889,0.13831 0.26113,0.08376 0.745909,0.08233 1.606916,-0.0048 0.678138,-0.06858 1.249898,-0.107776 1.270585,-0.08709 0.0879,0.08791 -1.628529,0.327724 -2.849058,0.398076 l -1.3221,0.07621 1.249253,0.09662 c 1.103011,0.08531 2.198096,0.04916 3.338165,-0.110175 0.272324,-0.03806 0.234391,-0.0064 -0.161256,0.134504 -0.349585,0.124518 -1.085873,0.203178 -2.270563,0.24258 -0.964275,0.03207 -1.753223,0.09662 -1.753223,0.143434 0,0.131774 1.617619,0.247078 2.492249,0.177642 1.074449,-0.08529 0.772674,0.02651 -0.605001,0.224166 l -1.139974,0.163546 1.636507,-0.03089 c 0.900079,-0.01699 1.609302,-0.0035 1.576049,0.02955 -0.224892,0.224895 -1.83667,0.345591 -4.189761,0.313746 -2.336687,-0.03164 -2.720064,-0.06557 -3.966299,-0.351184 z M 27.985918,41.27097 c -0.202357,-0.104249 -0.876172,-0.580577 -1.497371,-1.058495 l -1.129446,-0.868946 0.495034,-0.1199 c 0.373691,-0.09051 0.52047,-0.192694 0.598817,-0.41689 0.116236,-0.332629 -0.133953,-0.987321 -0.359596,-0.940993 -0.131636,0.02703 -0.568436,-0.505913 -0.587181,-0.716423 -0.01582,-0.177659 -0.813215,-0.20596 -1.018896,-0.03616 -0.100685,0.08312 -0.277946,0.306329 -0.393927,0.496024 -0.181853,0.297438 -0.210926,0.311613 -0.211295,0.103011 -4.35e-4,-0.302973 0.463613,-0.813858 0.884949,-0.974051 0.64448,-0.245031 1.215397,-0.02216 2.780144,1.085377 0.570061,0.403486 1.510211,0.978289 2.089223,1.277334 l 1.052746,0.543725 2.143324,-0.247899 c 1.178829,-0.136346 2.259727,-0.276577 2.401995,-0.311629 0.223167,-0.05498 0.258302,-0.01864 0.255985,0.264888 -0.0039,0.497576 -0.571542,1.434058 -1.032001,1.703058 -0.344053,0.200997 -0.669009,0.244218 -2.241821,0.29815 -3.647725,0.125088 -3.83929,0.12146 -4.230683,-0.08019 z m 1.823643,-0.414014 0.337667,-0.37364 -0.37364,0.337661 c -0.34828,0.314754 -0.426479,0.409613 -0.337665,0.409613 0.01977,0 0.187923,-0.168135 0.373638,-0.373634 z m -0.312928,-0.06795 c 0.253409,-0.253405 0.52193,-0.581055 0.596719,-0.728112 0.07479,-0.147057 -0.164598,0.02824 -0.531967,0.389512 -0.367369,0.361285 -0.635895,0.688935 -0.596718,0.728112 0.0392,0.03919 0.278562,-0.136104 0.531966,-0.389512 z m 3.902087,0.01047 c 0.177929,-0.173885 0.217543,-0.232683 0.08804,-0.130663 -0.129508,0.102015 -0.338939,0.242715 -0.4654,0.312655 -0.126461,0.06995 -0.16608,0.128746 -0.08804,0.130666 0.07804,0.0017 0.287469,-0.13877 0.4654,-0.312658 z M 32.683231,40.9489 c 0.215532,-0.161031 0.214319,-0.164502 -0.0355,-0.101552 -0.142269,0.03585 -0.258671,0.11087 -0.258671,0.166727 0,0.136816 0.03389,0.129312 0.29418,-0.06517 z m -2.578825,-0.03445 c 0.143003,-0.182344 0.138935,-0.186411 -0.04341,-0.04341 -0.191504,0.15019 -0.2524,0.244596 -0.157781,0.244596 0.02386,0 0.114408,-0.09054 0.201189,-0.201188 z m 4.253026,-0.06302 c 0.235602,-0.179368 0.790781,-0.991657 0.790781,-1.157003 0,-0.06848 -0.08532,0.0035 -0.189608,0.159754 -0.104289,0.156338 -0.373461,0.478252 -0.598161,0.715371 -0.391616,0.413249 -0.393384,0.579077 -0.0031,0.281878 z m -0.237714,-0.271836 0.396186,-0.42108 -0.488598,0.382838 c -0.268735,0.210562 -0.488603,0.400044 -0.488603,0.421074 0,0.137372 0.240912,-0.02138 0.581015,-0.382832 z m -7.464261,-1.044729 c 0.145949,-0.186103 0.14054,-0.18854 -0.07215,-0.03255 -0.126466,0.09276 -0.251488,0.183296 -0.277834,0.201189 -0.02633,0.0179 0.0061,0.03254 0.07215,0.03254 0.06603,0 0.191052,-0.09054 0.277833,-0.201188 z m -0.235893,-0.219395 0.278711,-0.30562 -0.37364,0.269755 c -0.388647,0.280596 -0.438342,0.34148 -0.27871,0.34148 0.05221,0 0.220346,-0.137528 0.373639,-0.305615 z M 9.114593,40.856966 c 0.03107,-0.747465 0.03933,-0.776016 0.223926,-0.776016 0.22746,0 0.218648,0.35518 -0.0213,0.858339 -0.106556,0.223453 -0.200315,0.406275 -0.20835,0.406275 -0.0081,0 -0.0055,-0.219868 0.0057,-0.488598 z M 29.827251,38.858953 C 29.49739,38.692699 28.865362,38.321007 28.422749,38.032967 27.98013,37.744933 27.359322,37.364554 27.04317,37.187681 c -0.316158,-0.176873 -0.49127,-0.322527 -0.389142,-0.32367 0.369124,-0.0044 0.791515,-0.458112 0.791515,-0.850692 0,-0.382099 -0.230036,-0.807245 -0.450587,-0.83276 -0.250528,-0.02899 -0.303138,-0.05676 -0.641578,-0.338795 l -0.344895,-0.287414 0.316152,0.116254 c 0.508673,0.187051 0.363276,0.0149 -0.196588,-0.232756 -0.54405,-0.24066 -0.934331,-0.21538 -1.426314,0.09239 -0.387144,0.242189 -0.269529,-0.05423 0.144032,-0.363002 0.251763,-0.187963 0.487834,-0.236788 1.142404,-0.236271 0.902373,8.69e-4 1.419954,0.183781 4.758301,1.683013 1.391476,0.624905 1.692525,0.718235 2.464552,0.764075 1.009885,0.05996 2.178851,-0.162425 3.594786,-0.683894 1.048422,-0.386119 1.141325,-0.343119 1.032727,0.477974 -0.110619,0.836367 -0.471265,1.461554 -1.122868,1.946515 -0.933923,0.695084 -1.068058,0.735781 -2.889555,0.876755 -2.898497,0.224326 -3.310977,0.210252 -3.998861,-0.136451 z m 2.680658,-0.358769 c 0.241246,-0.483619 0.243154,-0.488603 0.186693,-0.488603 -0.02912,0 -0.159744,0.181071 -0.290321,0.402378 -0.130575,0.221306 -0.196161,0.402377 -0.145748,0.402377 0.05041,0 0.162634,-0.142269 0.249376,-0.316152 z m -0.82271,-0.08777 c 0.391946,-0.446404 0.752306,-1.080486 0.664159,-1.168631 -0.03116,-0.03116 -0.118552,0.06418 -0.194214,0.211874 -0.07566,0.147682 -0.375381,0.514255 -0.666045,0.8146 -0.347881,0.359479 -0.46527,0.546085 -0.343515,0.546085 0.101726,0 0.344553,-0.181771 0.539615,-0.403928 z m 3.726139,-0.182557 0.484149,-0.471523 -0.546085,0.438386 c -0.300345,0.241108 -0.546085,0.453295 -0.546085,0.471518 0,0.108273 0.179925,-0.02147 0.608021,-0.438381 z m -3.232469,0.212851 c 0.190412,-0.305633 0.45146,-0.890985 0.397346,-0.890985 -0.02082,0 -0.19863,0.258675 -0.395165,0.574827 -0.196531,0.316158 -0.313685,0.574828 -0.260335,0.574828 0.05334,0 0.169517,-0.116401 0.258154,-0.25867 z m 3.805976,-0.302948 c 0.354672,-0.392584 0.87605,-1.186689 0.57478,-0.875447 -0.564995,0.583696 -1.089263,1.222707 -1.041966,1.270008 0.03198,0.03198 0.242228,-0.145558 0.467186,-0.394561 z m -1.166863,0.245461 c 0.143003,-0.182339 0.138936,-0.186406 -0.04341,-0.04341 -0.191503,0.150185 -0.2524,0.244591 -0.15778,0.244591 0.02385,0 0.114408,-0.09054 0.201188,-0.201188 z m 1.786472,-0.443552 c 0.296533,-0.314418 1.090044,-1.589774 0.814857,-1.309666 -0.05008,0.05098 -0.976149,1.205661 -1.267795,1.580772 -0.246152,0.316596 0.08638,0.117559 0.452938,-0.271106 z m -8.667914,-0.68933 c 0.135555,-0.13556 0.09594,-0.296496 -0.05067,-0.205883 -0.09255,0.0572 -0.109658,0.01838 -0.05485,-0.12444 0.06733,-0.17547 0.05258,-0.185099 -0.09543,-0.06227 -0.187071,0.155252 -0.246026,0.404494 -0.06994,0.295666 0.05783,-0.03576 0.123576,-0.0097 0.146101,0.05788 0.02251,0.06758 0.07868,0.08514 0.124784,0.03906 z m -0.451968,-0.370011 c 0.104995,-0.11602 0.190904,-0.27852 0.190904,-0.361104 0,-0.08259 -0.109368,-0.01113 -0.243038,0.158811 -0.27848,0.354034 -0.235637,0.520274 0.05214,0.202293 z m -2.376129,2.122094 c -0.206425,-0.08624 -0.513249,-0.320737 -0.681831,-0.521087 -0.261235,-0.310466 -0.289183,-0.409874 -0.18917,-0.672915 0.174587,-0.459208 0.330226,-0.603593 0.650632,-0.603593 0.283204,0 0.867452,0.514517 1.253796,1.104153 0.408439,0.623359 -0.209223,1.03782 -1.033427,0.693442 z m 0.58559,-0.162434 c 0.27669,-0.04472 0.244089,-0.255577 -0.0395,-0.255577 -0.09237,0 -0.37496,-0.130681 -0.627973,-0.2904 -0.417012,-0.263246 -0.447481,-0.314301 -0.325881,-0.546084 0.133322,-0.254126 0.132635,-0.254352 -0.112518,-0.03668 -0.337631,0.299777 -0.310465,0.469389 0.126978,0.792829 0.443743,0.328101 0.630572,0.392209 0.978908,0.33591 z m -0.490311,-2.6267 c -0.573597,-0.274886 -0.696039,-0.385075 -0.726885,-0.654152 -0.04403,-0.384089 0.237818,-0.857892 0.589884,-0.991639 0.300675,-0.114222 0.826164,0.07934 1.396607,0.514438 0.2186,0.166736 0.452708,0.269008 0.52024,0.227269 0.06753,-0.04171 0.110509,-0.03324 0.0955,0.0189 -0.01499,0.05213 0.03871,0.213839 0.119339,0.35937 0.240109,0.433363 0.124775,0.7539 -0.323404,0.898754 -0.453712,0.146644 -0.703306,0.09095 -1.671287,-0.372926 z m 1.638259,0.110637 c 0.224544,-0.09061 0.169191,-0.236033 -0.114969,-0.302035 -0.282321,-0.06558 -1.433523,-0.545264 -1.671671,-0.696558 -0.08741,-0.05553 -0.119878,-0.196591 -0.07901,-0.343265 0.06435,-0.230988 0.05239,-0.228212 -0.165215,0.03841 -0.12902,0.158077 -0.235729,0.344061 -0.237136,0.413302 -0.0094,0.462814 1.681935,1.126626 2.268008,0.890142 z M 11.074235,35.911656 c -0.373205,-0.174714 -0.657194,-0.339025 -0.63108,-0.365136 0.02611,-0.02611 0.331461,0.05055 0.678555,0.170352 0.714828,0.24673 1.338299,0.300254 0.682279,0.05857 -0.653749,-0.240846 -1.28104,-0.587454 -1.775678,-0.981151 -0.571933,-0.455218 -0.815449,-0.841141 -0.274348,-0.434792 0.574372,0.431334 1.504193,0.871801 2.25098,1.066315 0.8939,0.232831 1.14196,0.20185 0.437638,-0.05466 -0.824486,-0.300271 -1.420896,-0.58672 -2.042526,-0.98099 -0.742337,-0.47083 -0.689665,-0.601407 0.06972,-0.172836 0.770994,0.435122 2.188484,0.922508 2.653992,0.912545 0.277875,-0.0059 0.218226,-0.04298 -0.278807,-0.173042 -0.804751,-0.210608 -2.41421,-0.995984 -2.707259,-1.321079 -0.174857,-0.193981 -0.05949,-0.158824 0.522917,0.159353 0.411002,0.224535 1.135281,0.534757 1.609515,0.689375 0.973668,0.31746 2.005922,0.484422 1.896068,0.306676 -0.03858,-0.06247 -0.187415,-0.113578 -0.330687,-0.113578 -0.433515,0 -1.869285,-0.536091 -2.775456,-1.036308 -1.104032,-0.609441 -1.239999,-0.824881 -0.185424,-0.29381 0.793227,0.399467 2.028433,0.784047 2.947527,0.917707 0.318121,0.04626 0.140943,-0.05072 -0.574823,-0.31467 -1.033649,-0.381169 -3.210848,-1.446277 -3.127244,-1.529882 0.02434,-0.02433 0.427494,0.132675 0.895939,0.348876 0.88302,0.407539 2.266483,0.81906 2.378149,0.707393 0.03516,-0.03516 -0.0017,-0.06393 -0.082,-0.06393 -0.364332,0 -3.550407,-1.66871 -3.42518,-1.793941 0.02455,-0.02455 0.333994,0.112109 0.68767,0.303669 0.593851,0.321646 2.269247,0.954811 2.339795,0.884259 0.01686,-0.01686 -0.455353,-0.278576 -1.049408,-0.581545 -1.016642,-0.518489 -2.239126,-1.451618 -2.239126,-1.709137 0,-0.06392 0.193128,0.05335 0.429174,0.2606 0.414791,0.364193 2.155747,1.256512 2.451508,1.256512 0.07981,0 -0.266853,-0.247596 -0.770364,-0.550217 -0.92638,-0.55677 -1.99535,-1.381165 -1.99535,-1.538816 0,-0.04727 0.422413,0.170625 0.938702,0.484206 0.516287,0.313576 0.981895,0.570139 1.034688,0.570139 0.195084,0 0.0854,-0.114933 -0.299098,-0.313406 C 10.940764,30.44039 9.49066,29.256204 9.56912,29.177744 c 0.03046,-0.03046 0.146258,0.02642 0.257298,0.126417 0.211651,0.190613 1.321744,0.774813 1.47229,0.774813 0.04805,0 -0.218143,-0.199034 -0.591521,-0.442292 -0.373382,-0.243259 -0.782342,-0.562557 -0.908803,-0.709553 -0.239739,-0.278663 -0.126258,-0.241925 0.420123,0.136007 0.492256,0.340494 0.532341,0.242268 0.06001,-0.147061 -0.466606,-0.384619 -0.49518,-0.546963 -0.05887,-0.334472 0.261665,0.12743 0.261179,0.124406 -0.0189,-0.118405 -0.275578,-0.238909 -0.417277,-0.68353 -0.217844,-0.68353 0.05262,0 0.06262,-0.08609 0.02224,-0.191308 -0.04903,-0.127761 -0.02916,-0.163964 0.05978,-0.108994 0.08273,0.05113 0.110623,0.02351 0.07364,-0.07288 -0.13138,-0.342376 0.446515,-0.658485 1.429034,-0.781683 1.061497,-0.1331 1.594859,-0.312515 3.749107,-1.261169 3.725161,-1.640417 5.625692,-2.111883 9.541587,-2.366986 1.390789,-0.0906 3.175621,-0.244401 3.966294,-0.341776 2.048444,-0.252279 8.593173,-0.348494 11.899435,-0.17494 1.454312,0.07634 3.586877,0.188527 4.73904,0.249303 1.152162,0.06077 2.497256,0.186076 2.989106,0.278445 0.49183,0.09237 1.37733,0.221915 1.96777,0.287892 1.25709,0.140461 1.71297,0.337005 1.80587,0.778558 0.0363,0.172737 0.0843,0.40585 0.10659,0.518037 0.063,0.317148 -0.16715,1.034401 -0.41975,1.308049 -0.12559,0.136072 -0.45444,0.304334 -0.73076,0.373908 -0.5052,0.127213 -4.29325,0.168227 -4.601803,0.04982 -0.317089,-0.121677 -0.156905,-0.328167 0.462563,-0.596284 0.34317,-0.148521 0.71736,-0.344848 0.83154,-0.436274 0.11419,-0.09143 -0.0141,-0.05849 -0.28491,0.07319 -1.002695,0.487425 -1.526302,0.588528 -0.59965,0.115785 0.25292,-0.129029 0.45986,-0.260748 0.45986,-0.292702 0,-0.03194 -0.15263,0.02086 -0.33919,0.117302 -0.419345,0.216857 -0.701131,0.231453 -0.413926,0.02146 0.200886,-0.146892 0.201136,-0.157568 0.0055,-0.232635 -0.250715,-0.09621 -0.226151,-0.135021 -0.353808,0.559042 l -0.105716,0.57483 -0.574827,0.07615 c -0.770633,0.102093 -4.511402,0.115315 -5.639766,0.01994 -1.727104,-0.145993 -0.467238,-0.232835 2.590974,-0.17859 3.00747,0.05334 3.052685,0.05067 3.336206,-0.196874 0.253287,-0.221146 0.257597,-0.236524 0.03628,-0.12949 -0.377889,0.182774 -0.572664,0.147544 -0.316944,-0.05733 0.215571,-0.172711 0.214619,-0.174666 -0.02793,-0.05749 -0.325803,0.15739 -0.530529,0.154957 -0.43159,-0.0051 0.05682,-0.09193 0.01369,-0.09193 -0.158106,0 -0.363903,0.194754 -0.539676,0.162878 -0.351662,-0.06378 0.1468,-0.176973 0.132175,-0.176973 -0.210144,0 -0.430122,0.222367 -0.537616,0.238323 -0.429743,0.06378 0.05682,-0.09193 0.01369,-0.09193 -0.158103,0 -0.357123,0.191126 -0.425603,0.152558 -0.190465,-0.107268 0.179224,-0.198039 0.129307,-0.187767 -0.327076,0.06731 -0.296217,0.165558 -0.53858,0.244862 -0.53858,0.176221 0,-0.06864 0.0388,-0.125944 0.08622,-0.127347 0.04743,-0.0013 0.215563,-0.108772 0.373639,-0.238588 0.215441,-0.176925 0.155338,-0.161891 -0.24003,0.06004 -0.696383,0.390894 -0.794419,0.373474 -0.385049,-0.06843 l 0.337667,-0.364493 -0.344895,0.230827 c -0.556135,0.372196 -0.864719,0.433606 -0.45986,0.09151 l 0.344895,-0.291429 -0.555617,0.234077 c -0.714264,0.300914 -0.927658,0.296608 -0.450331,-0.0091 0.475137,-0.304286 0.483906,-0.394595 0.01478,-0.151989 -0.197383,0.102068 -0.588985,0.201094 -0.870229,0.220056 l -0.511364,0.03446 0.266662,-0.295001 0.266665,-0.295004 -0.344895,0.231496 c -0.618992,0.41547 -0.695289,0.425672 -0.344896,0.04613 l 0.344896,-0.373587 -0.459864,0.263021 -0.45986,0.26302 0.223483,-0.257055 c 0.211392,-0.243145 0.211927,-0.252622 0.0099,-0.175091 -0.155822,0.0598 -0.189201,0.04249 -0.123385,-0.064 0.07131,-0.115381 0.0388,-0.118445 -0.15523,-0.0146 -0.134995,0.07225 -0.238584,0.09034 -0.230193,0.04019 0.0084,-0.05013 0.0021,-0.272219 -0.01347,-0.493526 -0.0192,-0.269256 -0.05942,-0.136129 -0.12152,0.402378 -0.179024,1.552489 -0.168857,1.52999 -0.729667,1.61409 -0.993418,0.148973 -3.721242,0.120791 -3.882503,-0.04011 -0.124323,-0.124045 0.04114,-0.148013 0.941332,-0.136355 2.424012,0.03141 2.940719,0.003 3.168313,-0.17477 0.210301,-0.164169 0.203283,-0.169813 -0.121733,-0.09791 l -0.344905,0.0763 0.287414,-0.246361 0.287413,-0.246356 -0.427427,0.171824 c -0.574754,0.231049 -0.664168,0.212712 -0.319846,-0.0656 l 0.287414,-0.232313 -0.44516,0.177386 c -0.71462,0.284759 -0.855098,0.230493 -0.467334,-0.180523 l 0.337667,-0.357914 -0.609329,0.371314 c -0.66834,0.407279 -0.939989,0.406993 -0.367878,-3.86e-4 0.510707,-0.363654 0.355351,-0.403143 -0.242202,-0.06156 -0.661227,0.377984 -0.957304,0.379761 -0.50507,0.003 l 0.344895,-0.287311 -0.517346,0.286497 c -0.712081,0.394343 -1.125165,0.392601 -0.544028,-0.0022 0.235984,-0.160358 0.429065,-0.31372 0.429065,-0.340812 0,-0.02707 -0.237093,0.05238 -0.526875,0.176596 -0.685729,0.293936 -0.89423,0.285376 -0.421587,-0.01734 0.205498,-0.131606 0.373634,-0.256824 0.373634,-0.278263 0,-0.02146 -0.34185,0.116019 -0.75967,0.305468 -0.899357,0.407787 -1.126939,0.360242 -0.294583,-0.06154 0.704569,-0.357032 0.862766,-0.554975 0.27622,-0.345617 -0.629072,0.224539 -0.823257,0.194362 -0.4291,-0.06668 0.414492,-0.274509 0.358431,-0.28535 -0.290894,-0.05626 -0.5981,0.211026 -0.729167,0.143772 -0.226452,-0.116189 0.201446,-0.104175 0.34002,-0.21565 0.307945,-0.247726 -0.03207,-0.03207 -0.153288,-0.0096 -0.269356,0.05006 -0.116071,0.05961 -0.366239,0.14273 -0.55593,0.184717 l -0.344896,0.07634 0.287414,-0.230041 0.28741,-0.230045 -0.574824,0.21213 c -0.683369,0.252182 -1.546324,0.421686 -1.37961,0.270987 0.06323,-0.05716 0.335094,-0.173015 0.604136,-0.257467 0.662513,-0.20795 0.552837,-0.256754 -0.245391,-0.109193 -0.361569,0.06684 -0.823002,0.103762 -1.025415,0.08205 -0.356741,-0.03828 -0.352161,-0.04323 0.149325,-0.16227 0.455267,-0.108059 0.379392,-0.11814 -0.63231,-0.08401 -0.632309,0.02133 -2.236072,0.07036 -3.563916,0.108942 -1.327851,0.03859 -3.06095,0.104001 -3.851335,0.145362 l -1.43707,0.0752 1.034687,0.198682 c 1.422939,0.273227 3.494282,0.422517 6.150638,0.4433 1.330773,0.01043 2.529881,0.07835 2.950651,0.16718 0.389859,0.0823 1.381412,0.470061 2.203457,0.861685 l 1.49463,0.712039 -0.219878,0.36059 c -0.12093,0.198321 -0.219877,0.489924 -0.219877,0.648 0,0.311143 0.40091,1.053602 0.543821,1.00713 0.142624,-0.04638 0.956426,0.498766 0.894396,0.59913 -0.06239,0.100952 0.324756,0.230245 0.687783,0.229698 0.126461,-1.92e-4 0.61794,-0.237115 1.09217,-0.526497 0.474232,-0.289382 0.739361,-0.489915 0.589171,-0.445625 -0.186511,0.055 -0.248134,0.04019 -0.194407,-0.04676 0.04328,-0.07 0.187707,-0.127282 0.320972,-0.127282 0.13327,0 0.210227,-0.03207 0.171021,-0.07129 -0.140287,-0.140283 -0.669991,0.08374 -1.090844,0.461332 -0.602719,0.540771 -0.856559,0.593282 -1.45873,0.301775 -0.72208,-0.349554 -1.326281,-1.05126 -1.326281,-1.54031 0,-0.544225 0.254973,-0.733712 0.72775,-0.54084 0.200433,0.08177 0.904677,0.324939 1.564986,0.540375 1.746856,0.569948 2.190913,0.90512 2.190913,1.653714 0,0.382455 -0.07665,0.536508 -0.455337,0.915196 -0.872326,0.872331 -2.391871,1.042752 -5.215836,0.584978 -1.522073,-0.246735 -2.206685,-0.487634 -2.109028,-0.74212 0.03085,-0.08037 0.01447,-0.32261 -0.03641,-0.538316 -0.08682,-0.368238 -0.09319,-0.355876 -0.10424,0.202466 -0.01121,0.56689 -0.0292,0.600017 -0.385406,0.709549 -0.761847,0.234269 -3.83849,0.573937 -5.353351,0.591022 -0.08315,8.69e-4 -0.440519,-0.295769 -0.794157,-0.659345 -0.387844,-0.39874 -0.541662,-0.5131 -0.387639,-0.288196 0.140439,0.205069 0.218209,0.432933 0.172828,0.506366 -0.05484,0.08872 -0.03193,0.102237 0.06831,0.04028 0.153344,-0.09477 0.141751,0.02238 -0.05691,0.57504 -0.05243,0.145845 -0.0013,0.113974 0.139314,-0.08715 0.122086,-0.174396 0.254812,-0.284237 0.294958,-0.244097 0.09472,0.09472 -0.201767,0.669835 -0.644924,1.250972 l -0.350675,0.45986 0.374481,-0.344897 c 0.205965,-0.189691 0.478544,-0.513031 0.605735,-0.718534 0.322184,-0.520549 0.49579,-0.469067 0.222784,0.06607 -0.299771,0.587595 -1.696291,2.069661 -2.566802,2.724041 -1.27536,0.958703 -2.903923,1.618812 -4.664901,1.890845 -0.359534,0.05554 -1.895325,0.092 -3.412867,0.08102 -2.7537,-0.0199 -2.760509,-0.02059 -3.437721,-0.337617 z m 6.332334,0.02385 c 0.766174,-0.0998 2.606016,-0.566663 2.530545,-0.642134 -0.02533,-0.02534 -0.376854,0.03437 -0.781187,0.132666 -0.404332,0.09829 -1.66637,0.226998 -2.804525,0.286023 -1.138158,0.05902 -2.09524,0.115037 -2.126855,0.124476 -0.03164,0.0094 0.149451,0.05996 0.402377,0.112274 0.56413,0.116684 1.828119,0.110635 2.779645,-0.0133 z m 0.726794,-0.643094 c 1.162956,-0.176557 3.104062,-0.810561 3.104062,-1.013852 0,-0.03672 -0.142269,0.0067 -0.316154,0.09658 -0.507221,0.262067 -1.183542,0.411533 -3.1666,0.699811 -1.84059,0.267569 -1.851309,0.270785 -0.885927,0.265966 0.537464,-0.0027 1.106543,-0.02451 1.264619,-0.04852 z m 1.322101,-0.717396 c 0.672919,-0.196214 1.896924,-0.763351 1.896924,-0.878927 0,-0.03185 -0.194002,0.03954 -0.431117,0.158623 -0.593115,0.29786 -1.462922,0.572964 -2.400799,0.759331 -0.738822,0.146814 -0.756285,0.157051 -0.272144,0.159493 0.284541,0.0013 0.827749,-0.08789 1.207136,-0.19852 z m 0.344896,-0.518742 c 0.596509,-0.189452 1.707032,-0.756576 1.630788,-0.83282 -0.0325,-0.0325 -0.179898,0.0059 -0.327585,0.08534 -0.147682,0.07942 -0.734125,0.313832 -1.303203,0.520917 -0.980173,0.356676 -0.980173,0.537864 0,0.226564 z m -1.114834,-0.576743 c 0.525003,-0.08547 0.986522,-0.187363 1.025602,-0.226448 0.03906,-0.03906 -0.183521,-0.03354 -0.494682,0.01225 -0.725273,0.106799 -2.265087,0.111943 -3.439872,0.01147 -0.918333,-0.07852 -0.91894,-0.07839 -0.402377,0.08752 0.754608,0.242359 2.217527,0.293249 3.311329,0.115194 z m -1.529368,-0.543565 c -1.070752,-0.137041 -2.622464,-0.510837 -3.06011,-0.737154 -0.194003,-0.100318 -0.381669,-0.153466 -0.417039,-0.118097 -0.03537,0.03537 0.21518,0.192048 0.55677,0.348173 0.693054,0.316765 2.381173,0.646883 3.19411,0.624619 0.468202,-0.01282 0.435814,-0.02672 -0.273731,-0.117541 z m 10.289385,-2.290207 c 0,-0.05882 -0.07031,-0.106939 -0.156242,-0.106939 -0.08594,0 -0.44755,-0.146935 -0.803587,-0.326524 -0.356037,-0.179589 -0.586968,-0.253778 -0.513179,-0.164868 0.271298,0.326894 1.473008,0.815027 1.473008,0.598331 z m -1.264732,-0.215046 c -0.221376,-0.117106 -0.501,-0.321753 -0.621386,-0.45478 -0.120391,-0.133031 -0.271624,-0.241868 -0.336075,-0.241868 -0.173901,0 0.392019,0.571586 0.75068,0.758197 0.170747,0.08884 0.377684,0.159237 0.459864,0.156443 0.08217,-0.0026 -0.03172,-0.10089 -0.253083,-0.217992 z m -1.149534,-0.524202 c -0.407348,-0.410999 -0.75688,-0.747273 -0.776738,-0.747273 -0.01986,0 0.02295,0.110314 0.09509,0.245139 0.186976,0.349376 1.108233,1.249407 1.278872,1.249407 0.07887,0 -0.189874,-0.33627 -0.597224,-0.747273 z m 8.847534,0.588762 c 0.0027,-0.05557 -0.176283,-0.301457 -0.397594,-0.546419 -0.221307,-0.244961 -0.402378,-0.402121 -0.402378,-0.349241 0,0.132401 0.794018,1.021392 0.799972,0.89566 z m -0.455076,0.01408 c 0,-0.03172 -0.186086,-0.361372 -0.413528,-0.732608 -0.381308,-0.622385 -0.446041,-0.491597 -0.09683,0.195631 0.14027,0.276043 0.510359,0.665433 0.510358,0.536977 z m -5.748259,-0.134099 c -0.320316,-0.192994 -0.572235,-0.243345 -0.396629,-0.07927 0.06007,0.05612 0.238547,0.135881 0.396629,0.177242 l 0.287413,0.0752 z m 5.041686,-0.356389 c -0.131423,-0.222749 -0.307289,-0.623693 -0.390811,-0.89098 -0.117697,-0.376676 -0.153583,-0.419949 -0.15954,-0.192399 -0.0085,0.325282 0.529512,1.488381 0.688505,1.488381 0.05544,0 -0.0067,-0.182252 -0.138154,-0.405002 z m -0.387835,0.08884 c -0.04637,-0.11065 -0.181896,-0.485723 -0.301157,-0.833495 l -0.216835,-0.632305 0.07251,0.517341 c 0.03989,0.284538 0.145332,0.659615 0.234329,0.833499 0.177152,0.346147 0.34673,0.438477 0.211143,0.114963 z m -0.400139,0.0074 c 0,-0.06862 -0.08034,-0.298837 -0.178533,-0.511597 l -0.178534,-0.386835 0.06572,0.398789 c 0.06284,0.381303 0.291342,0.773174 0.291342,0.499643 z m 5.173437,-1.358301 c 0.521295,-0.435531 0.521651,-0.499687 0.0013,-0.230588 -0.307629,0.159067 -0.363898,0.152684 -0.759923,-0.08622 -0.235208,-0.14187 -0.626358,-0.445896 -0.869194,-0.675571 -0.410508,-0.388256 -0.441528,-0.39944 -0.441528,-0.159211 0,0.339573 0.359269,0.783964 0.977896,1.209588 0.27533,0.189431 0.525185,0.344422 0.555231,0.344422 0.03007,0 0.271359,-0.18107 0.536252,-0.402377 z m -24.21016,-0.48716 c 0.373895,-0.293588 1.071055,-0.756755 1.549247,-1.029265 1.078108,-0.614386 0.974325,-0.635321 -0.257711,-0.05198 -0.941887,0.445964 -1.70453,0.980129 -1.998431,1.399731 -0.251106,0.358501 -0.02628,0.257207 0.706895,-0.31849 z m -2.634222,-0.14515 c -0.03906,-0.06323 -0.122785,-0.114964 -0.186016,-0.114964 -0.06323,0 -0.08299,0.05173 -0.04392,0.114964 0.03906,0.06323 0.122789,0.114964 0.18602,0.114964 0.06323,0 0.08299,-0.05173 0.04392,-0.114964 z m 4.196231,-1.406284 c 0.537464,-0.256715 1.339347,-0.58622 1.781961,-0.732226 0.442617,-0.14601 0.708923,-0.267787 0.591786,-0.270615 -0.547075,-0.01321 -3.523399,1.205647 -3.523399,1.442896 0,0.09144 0.185829,0.02029 1.149652,-0.440055 z m 15.81821,-0.346925 c 0.103867,-0.205499 0.295283,-0.490036 0.425373,-0.632305 0.130089,-0.142273 0.18479,-0.258675 0.12156,-0.258675 -0.19681,0 -0.615447,0.520739 -0.724592,0.901313 -0.13403,0.467333 -0.06163,0.463123 0.177659,-0.01034 z m -0.120291,-0.635129 c 0.341116,-0.410429 0.382573,-0.498293 0.169535,-0.359344 -0.320723,0.209189 -0.762656,0.760996 -0.67759,0.846065 0.03111,0.03111 0.259722,-0.187927 0.508055,-0.486721 z m 19.481447,0.204878 c 0.0949,-0.06082 0.25429,-0.08516 0.35435,-0.0541 0.10117,0.03141 0.2797,-0.05898 0.40237,-0.203818 l 0.22047,-0.260296 -0.23897,0.201189 c -0.30548,0.257176 -0.46937,0.260583 -0.2637,0.0055 0.14858,-0.184295 0.14122,-0.184295 -0.12647,0 -0.36517,0.251414 -0.7219,0.272705 -0.39877,0.02381 0.13381,-0.103076 -0.007,-0.07409 -0.35166,0.0724 -0.31616,0.13436 -0.6007,0.271089 -0.63231,0.303838 -0.0665,0.06883 0.30042,-0.02155 0.62242,-0.15334 0.15506,-0.06347 0.1955,-0.05034 0.13693,0.04444 -0.10026,0.162152 0.0382,0.172416 0.27534,0.02042 z m -1.04631,-0.1204 c 0.27814,-0.126196 0.48015,-0.255003 0.44892,-0.286241 -0.0312,-0.03124 -0.33641,0.07017 -0.67816,0.225353 -0.34176,0.155178 -0.54379,0.283985 -0.44894,0.28624 0.0949,0.0022 0.40002,-0.09916 0.67818,-0.225352 z m -0.58558,-0.108728 c 0.39169,-0.185243 0.71216,-0.358853 0.71216,-0.385801 0,-0.0486 -1.39305,0.486425 -1.48496,0.570334 -0.0263,0.02407 -0.0235,0.06815 0.006,0.098 0.0298,0.02985 0.37475,-0.09729 0.76643,-0.28253 z m -31.765515,-0.18954 c 0.252926,-0.09442 0.899605,-0.293918 1.437069,-0.443335 0.537459,-0.149416 0.873734,-0.27533 0.747273,-0.279801 -0.324552,-0.01147 -2.305794,0.530872 -2.678607,0.733252 -0.400644,0.217491 -0.09889,0.211317 0.494265,-0.01013 z m 4.943508,-0.157025 1.034687,-0.07152 -1.322102,-0.01025 c -0.727155,-0.0056 -1.451433,0.03116 -1.609514,0.08178 -0.344374,0.110289 0.301262,0.110289 1.896929,0 z M 41.011446,25.25042 c 0.103614,-0.06696 0.117796,-0.112148 0.03554,-0.113204 -0.07531,-8.69e-4 -0.168895,0.04997 -0.207976,0.113204 -0.08821,0.14273 -0.04842,0.14273 0.172451,0 z M 24.248078,25.17189 c -0.08299,-0.0332 -0.182148,-0.02911 -0.22035,0.0091 -0.0382,0.03819 0.02968,0.06538 0.150889,0.06039 0.13393,-0.0055 0.16117,-0.03276 0.06947,-0.06946 z m -0.826316,-0.151849 c -0.284537,-0.05644 -1.189887,-0.127839 -2.011892,-0.158668 -1.221654,-0.04582 -1.316117,-0.03932 -0.517342,0.03554 1.862981,0.174645 3.090184,0.234377 2.529234,0.123116 z m 8.694693,10.737531 c -0.261074,-0.09053 -0.901492,-0.355437 -1.423144,-0.588684 -0.893812,-0.399649 -1.160513,-0.606278 -0.782533,-0.606278 0.495081,0 0.682448,-1.060601 0.298585,-1.690156 -0.236445,-0.387783 -0.853734,-0.781344 -1.042518,-0.664673 -0.06127,0.03785 -0.226455,-0.01177 -0.367099,-0.110267 -0.140643,-0.09851 -0.350722,-0.179106 -0.466847,-0.179106 -0.116123,0 -0.179162,-0.05173 -0.140083,-0.114964 0.09284,-0.150216 -0.0133,-0.145506 -0.323712,0.01438 -0.389769,0.200746 -0.782253,0.590492 -0.898833,0.892558 -0.164428,0.426055 -0.254251,0.194141 -0.102684,-0.265115 0.31763,-0.962427 1.263416,-1.211982 3.5568,-0.938485 2.586033,0.308392 3.881516,0.395599 4.343926,0.292419 0.24056,-0.05368 0.976666,-0.15264 1.635791,-0.21992 1.397523,-0.142652 1.961028,-0.405833 2.483653,-1.15998 l 0.331925,-0.47897 0.203226,0.250971 c 0.417244,0.515274 0.45724,1.001734 0.196536,2.390247 -0.375412,1.999456 -0.674949,2.291202 -2.919198,2.843249 -2.677942,0.658728 -3.476596,0.716714 -4.583791,0.33279 z m 2.150976,-0.294009 c 0.206629,-0.322215 0.462558,-1.242537 0.370997,-1.334098 -0.03576,-0.03576 -0.06555,0.0083 -0.06616,0.09783 -4.35e-4,0.08958 -0.131058,0.441987 -0.289865,0.783142 -0.302039,0.648834 -0.310813,0.914466 -0.01495,0.453125 z m -0.359912,-0.297386 c 0.303582,-0.570883 0.606438,-1.621039 0.498596,-1.728886 -0.03445,-0.03445 -0.06265,0.01338 -0.06265,0.106292 0,0.09292 -0.206938,0.59687 -0.45986,1.119883 -0.500199,1.034348 -0.505205,1.048795 -0.363167,1.048795 0.05318,0 0.227369,-0.245739 0.387088,-0.546084 z m 0.892583,0.0372 c 0.065,-0.170964 0.114538,-0.398011 0.11008,-0.504549 -0.0044,-0.106539 -0.08227,0.0088 -0.172902,0.25612 -0.09065,0.247404 -0.140183,0.474446 -0.110084,0.504545 0.03011,0.03011 0.107907,-0.08515 0.172906,-0.256116 z m 0.405593,-0.18091 c 0.04365,-0.198733 0.0554,-0.385301 0.02611,-0.414591 -0.02929,-0.02929 -0.0863,0.112009 -0.126705,0.313997 -0.09584,0.479203 -0.0031,0.572081 0.100593,0.100593 z M 31.239396,34.78575 c 0,-0.06697 -0.05173,-0.08977 -0.114963,-0.0507 -0.06324,0.03906 -0.114968,0.09387 -0.114968,0.12175 0,0.02789 0.05173,0.0507 0.114968,0.0507 0.06323,0 0.114963,-0.05479 0.114963,-0.12175 z M 38.1073,34.651603 c 0.203534,-0.253278 0.737783,-1.37396 0.681718,-1.430026 -0.02947,-0.02947 -0.238957,0.295631 -0.46557,0.722402 -0.387508,0.729762 -0.481671,1.038038 -0.216148,0.707624 z m -0.371727,-0.0897 c 0.114794,-0.126851 0.181557,-0.257801 0.148355,-0.291002 -0.0332,-0.0332 -0.146166,0.07059 -0.251035,0.230635 -0.229129,0.349689 -0.183457,0.376538 0.10268,0.06037 z m -6.797794,0.05374 c 0.11094,-0.289104 0.07822,-0.363697 -0.05731,-0.13064 -0.06711,0.115398 -0.09779,0.234033 -0.06819,0.263632 0.02959,0.02959 0.08608,-0.03024 0.125502,-0.132992 z m -0.276425,-0.217026 c 0.065,-0.17096 0.11472,-0.423873 0.110487,-0.562027 -0.0045,-0.147513 -0.07363,-0.03954 -0.167448,0.261569 -0.175644,0.563738 -0.131559,0.796295 0.05696,0.300458 z m 8.208266,-0.231683 c 0.184216,-0.281153 0.535313,-1.560441 0.522447,-1.903634 -0.0035,-0.09484 -0.107368,0.181466 -0.230692,0.614034 -0.123324,0.432563 -0.304535,0.941779 -0.402691,1.131593 -0.223075,0.431381 -0.142955,0.545493 0.110936,0.158007 z m -10.431894,0.09411 c -0.49804,-0.165864 -1.002629,-0.398667 -1.121299,-0.517342 -0.362498,-0.362498 -0.276881,-0.871514 0.232222,-1.380617 0.508352,-0.508356 0.533354,-0.506336 1.669261,0.13473 1.218643,0.687762 1.478483,1.516446 0.595953,1.900635 -0.455487,0.198286 -0.330748,0.210739 -1.376137,-0.137406 z m 1.378219,-0.224001 0.331283,-0.27092 -0.344897,-0.0068 c -0.189695,-0.0039 -0.652653,-0.133374 -1.028799,-0.288 -0.402886,-0.165619 -0.792615,-0.253857 -0.948462,-0.214741 -0.228812,0.05743 -0.265615,0.02199 -0.272341,-0.262217 -0.0074,-0.31471 -0.01295,-0.317938 -0.129703,-0.07629 -0.147934,0.306172 -0.05434,0.593099 0.221099,0.677799 0.112087,0.03445 0.4366,0.169152 0.721141,0.299298 0.929774,0.425276 1.085565,0.440519 1.450679,0.141934 z m -0.580476,-1.762539 c 0.03024,-0.03024 0.144293,0.03824 0.253443,0.152202 0.189613,0.19796 0.187163,0.200411 -0.05499,0.05499 -0.139393,-0.08371 -0.228699,-0.176951 -0.198451,-0.207194 z"
       id="path1-8"
       inkscape:export-filename="maoDir.svg"
       inkscape:export-xdpi="96"
       inkscape:export-ydpi="96" /></g></svg>
