<?xml version="1.0" encoding="UTF-8" standalone="no"?>
<!-- Created with Inkscape (http://www.inkscape.org/) -->

<svg
   width="53.195168mm"
   height="21.938086mm"
   viewBox="0 0 53.195168 21.938086"
   version="1.1"
   id="svg1"
   xml:space="preserve"
   xmlns:inkscape="http://www.inkscape.org/namespaces/inkscape"
   xmlns:sodipodi="http://sodipodi.sourceforge.net/DTD/sodipodi-0.dtd"
   xmlns="http://www.w3.org/2000/svg"
   xmlns:svg="http://www.w3.org/2000/svg"><sodipodi:namedview
     id="namedview1"
     pagecolor="#ffffff"
     bordercolor="#000000"
     borderopacity="0.25"
     inkscape:showpageshadow="2"
     inkscape:pageopacity="0.0"
     inkscape:pagecheckerboard="0"
     inkscape:deskcolor="#d1d1d1"
     inkscape:document-units="mm" /><defs
     id="defs1" /><g
     inkscape:label="Camada 1"
     inkscape:groupmode="layer"
     id="layer1"><path
       style="fill:#403b33;fill-opacity:1;stroke:#403b33;stroke-width:0.218734;stroke-dasharray:none;stroke-opacity:1"
       d="m 45.329881,21.692507 c -0.905278,-0.0865 -1.413839,-0.18716 -1.527843,-0.30228 -0.09399,-0.0949 -0.425853,-0.7455 -0.737483,-1.44577 l -0.566595,-1.27321 -0.451987,0.0364 c -0.248596,0.02 -1.129109,0.26249 -1.956697,0.53882 -3.001528,1.00224 -3.787963,1.18234 -5.847266,1.33905 -2.002145,0.15237 -8.250457,-0.051 -9.199806,-0.29943 -0.466804,-0.12216 -1.567219,-0.21037 -3.35665,-0.26907 -2.701213,-0.0886 -3.008532,-0.13948 -3.664336,-0.60646 -0.374651,-0.26677 -0.84917,-1.12006 -0.964375,-1.73416 -0.06147,-0.32764 -0.173194,-0.45507 -0.595349,-0.67902 -0.820542,-0.4353 -1.506929,-1.27887 -1.666671,-2.04834 -0.07377,-0.35537 -0.112156,-0.79585 -0.0853,-0.97886 0.04345,-0.29602 -0.0066,-0.35959 -0.453528,-0.57594 -0.648746,-0.31405 -0.997276,-0.90825 -1.303788,-2.2228 -0.337714,-1.4483597 -0.319,-2.3250697 0.06024,-2.8222897 0.225591,-0.29576 0.303212,-0.54541 0.321921,-1.03539 0.02252,-0.58988 0.06433,-0.68247 0.484021,-1.07201 0.340694,-0.3162 0.728494,-0.51079 1.50109,-0.75321 0.572946,-0.17977 1.083229,-0.36532 1.133962,-0.41234 0.08121,-0.0753 -1.677179,-0.27554 -2.291428,-0.26099 -2.762617,0.0655 -11.8400438,0.11058 -12.2464488,0.0609 -1.07114401,-0.13104 -1.71632401,-0.80964 -1.79426801,-1.8872 -0.09538,-1.31868 0.354147,-1.77273 1.96025401,-1.97999 0.532831,-0.0687 1.5938149,-0.22866002 2.3577429,-0.35535002 1.7255175,-0.28615 5.4710003,-0.44609 12.1759079,-0.51992 4.756758,-0.0524 5.140403,-0.0406 7.897936,0.24199 1.594075,0.16338 3.314229,0.29705 3.822562,0.29705 1.892389,0 5.152049,0.63081002 7.007953,1.35619002 0.572949,0.22393 1.79697,0.73646 2.720049,1.13895 0.923079,0.40249 1.99288,0.81856 2.377335,0.92459 0.678522,0.18714 0.722618,0.18533 1.504706,-0.0619 0.698811,-0.22089 1.204943,-0.26731 3.815112,-0.34992 1.725062,-0.0546 3.368081,-0.0511 3.849815,0.008 1.071744,0.13206 1.921354,0.49097 2.102304,0.88811 0.312299,0.68542 1.0605,4.09245 1.163297,5.29722 0.05976,0.7004297 0.141665,3.1746397 0.182004,5.4982597 0.07774,4.4778 0.0013,5.71652 -0.369822,5.98784 -0.112867,0.0825 -0.532827,0.14764 -0.959831,0.14881 -0.417541,0.001 -1.253984,0.0783 -1.858761,0.17154 -1.259105,0.19405 -2.597546,0.19755 -4.539986,0.0119 z m 4.308491,-0.47484 c 0.604778,-0.0932 1.478856,-0.1704 1.942392,-0.17154 0.568327,-10e-4 0.859379,-0.0492 0.893716,-0.14676 0.195356,-0.55509 0.27714,-3.71914 0.172769,-6.68437 -0.141061,-4.00773 -0.261168,-5.2172997 -0.689615,-6.9447997 -0.181571,-0.7321 -0.389788,-1.62602 -0.462701,-1.98651 -0.125431,-0.62013 -0.158718,-0.66588 -0.618387,-0.84986 -0.267201,-0.10695 -0.890719,-0.2353 -1.385595,-0.28522 -1.056974,-0.10662 -6.388743,0.0586 -7.144618,0.22141 -0.286471,0.0617 -0.572942,0.12057 -0.636603,0.13084 -0.06366,0.0103 0.136587,0.061 0.445001,0.11275 0.879542,0.14761 1.181688,0.53508 1.759526,2.25643 0.519887,1.54871 0.763626,3.7607397 0.828468,7.5185797 0.05282,3.06163 0.03596,3.48891 -0.191904,4.86136 -0.1374,0.82759 -0.27644,1.59586 -0.308979,1.70726 -0.05258,0.18004 0.04143,0.20383 0.845677,0.21401 0.497659,0.006 1.191308,0.051 1.541444,0.0994 1.026383,0.14188 1.837474,0.12759 3.009409,-0.053 z m -3.067281,-0.39682 c -0.190986,-0.0532 -0.698825,-0.10281 -1.128532,-0.11034 -0.429711,-0.008 -0.781291,-0.0531 -0.781291,-0.10127 0,-0.0482 0.05629,-0.26953 0.125099,-0.49192 0.06881,-0.2224 0.162891,-0.82104 0.209079,-1.33033 0.0808,-0.89092 0.08881,-0.91063 0.211699,-0.52085 l 0.127727,0.40511 0.02568,-0.40511 0.02568,-0.40512 0.07157,0.39553 0.07157,0.39553 0.153753,-0.28912 c 0.207591,-0.39036 0.720636,-0.67556 1.215246,-0.67556 0.511474,0 1.071826,0.44944 1.364973,1.09481 l 0.212483,0.46777 0.01697,-0.34724 c 0.01098,-0.22475 0.04821,-0.13324 0.105525,0.25944 0.0487,0.33368 0.118694,0.68526 0.155547,0.78129 0.08699,0.22669 0.531606,0.22356 0.859399,-0.006 0.478542,-0.33518 0.600998,-0.77138 0.687297,-2.44812 0.08144,-1.5824 0.08294,-1.58909 0.176544,-0.78576 0.05192,0.44562 0.06745,1.17483 0.03452,1.62045 -0.04165,0.56307 -0.02498,0.7514 0.05461,0.61738 0.06298,-0.10607 0.152956,-1.14779 0.199953,-2.31494 0.07086,-1.75978 0.09799,-1.98375 0.158923,-1.31185 0.04042,0.44562 0.08812,1.33109 0.106016,1.96769 0.03124,1.11017 0.0381,1.07233 0.169055,-0.92597 0.08981,-1.37059 0.145279,-1.80622 0.16213,-1.27321 0.01409,0.44562 0.06871,1.01857 0.121376,1.27321 0.06811,0.32925 0.10294,-0.0887 0.120614,-1.44683 0.03215,-2.47152 0.203532,-1.99689 0.229863,0.6366 0.01216,1.21711 0.05762,1.87939 0.119149,1.7362 0.05471,-0.12732 0.103137,-1.29491 0.107612,-2.59465 0.0045,-1.29974 0.03316,-2.33812 0.06378,-2.30752 0.03062,0.0306 0.105876,1.53676 0.167274,3.34701 0.104498,3.08097 0.05592,4.6133 -0.152899,4.82279 -0.173259,0.17382 -5.062209,0.41171 -5.567983,0.27094 z m 1.244276,-0.70873 c 0.407654,-0.44176 0.428329,-1.06957 0.05355,-1.62631 -0.367984,-0.54665 -0.791068,-0.73416 -1.287122,-0.57045 -0.551616,0.18205 -0.789051,0.49825 -0.849194,1.13089 -0.06069,0.63842 0.219967,1.10341 0.828673,1.37292 0.47313,0.20948 0.866265,0.11323 1.254093,-0.30705 z m -1.265647,0.1209 c -0.286607,-0.11548 -0.545601,-0.52543 -0.439948,-0.69638 0.04583,-0.0741 0.145651,-0.0733 0.28711,0.002 0.119276,0.0638 0.311438,0.11421 0.427026,0.11196 0.168031,-0.003 0.152151,-0.0373 -0.0792,-0.16952 -0.258565,-0.14781 -0.264724,-0.16624 -0.05787,-0.1732 l 0.231495,-0.008 -0.231495,-0.18191 c -0.224776,-0.17663 -0.223122,-0.1794 0.05697,-0.0954 0.258123,0.0774 0.271847,0.0665 0.13051,-0.10377 -0.180771,-0.21782 -0.01557,-0.26149 0.194485,-0.0514 0.103369,0.10337 0.138896,0.10441 0.138896,0.004 0,-0.0741 -0.108632,-0.19296 -0.241404,-0.26402 -0.132776,-0.071 -0.210264,-0.16034 -0.172196,-0.19841 0.03806,-0.038 0.224828,0.0459 0.415026,0.18647 0.40464,0.29916 0.454244,0.20546 0.09415,-0.17785 -0.349515,-0.37204 -0.08155,-0.33805 0.29376,0.0373 0.237422,0.23742 0.305147,0.41842 0.305147,0.81548 0,0.83741 -0.600884,1.26481 -1.352454,0.962 z m 0.194988,-0.35208 c -0.09549,-0.0648 -0.277792,-0.17113 -0.405112,-0.23626 -0.181926,-0.0931 -0.172988,-0.0674 0.04178,0.11963 0.150288,0.13091 0.332589,0.23723 0.405113,0.23625 0.07252,-8.7e-4 0.05373,-0.0548 -0.04178,-0.11962 z m 1.93198,-5.3187 c -0.03968,-1.49602 -0.09765,-2.90235 -0.128768,-3.12516 -0.0311,-0.22281 0.02104,-0.0666 0.115933,0.34724 0.210873,0.9196 0.349414,4.52851 0.195504,5.09286 -0.08274,0.30338 -0.128611,-0.2779 -0.182669,-2.31494 z m -0.470977,-0.20256 c -0.04296,-1.25729 -0.09993,-2.75476 -0.126612,-3.32771 l -0.04851,-1.0417197 0.161189,1.0995897 c 0.211805,1.44487 0.366169,5.55584 0.208624,5.55584 -0.07171,0 -0.146648,-0.8799 -0.194691,-2.286 z m -2.41984,-1.71185 c -0.05982,-2.04379 -0.215374,-3.4341997 -0.601645,-5.3776297 -0.178811,-0.89964 0.349489,0.97906 0.602144,2.14131 0.253044,1.1640397 0.301804,1.6794897 0.301117,3.1830397 -4.37e-4,0.98674 -0.05329,1.92222 -0.117411,2.07885 -0.08657,0.21145 -0.133997,-0.31006 -0.184205,-2.02557 z m -0.454691,0.6412 c -0.04534,-0.35014 -0.141074,-1.31373 -0.21274,-2.14132 -0.147208,-1.7000197 -0.589125,-4.4582797 -0.852179,-5.3189397 -0.285272,-0.93335 -0.117792,-0.73465 0.208764,0.24769 0.664553,1.99905 1.041799,4.5876197 0.975221,6.6917097 -0.0336,1.06193 -0.04344,1.10492 -0.119066,0.52086 z m 1.028391,-1.69664 c -0.04108,-0.81752 -0.09961,-1.7728697 -0.130099,-2.1229997 l -0.05543,-0.63661 0.163267,0.75236 c 0.223769,1.0311497 0.351921,3.0380097 0.210168,3.2913097 -0.08086,0.14449 -0.134587,-0.22263 -0.187909,-1.28406 z m 5.448772,-1.13916 c -0.0453,-0.19098 -0.13743,-0.8160097 -0.20473,-1.3889597 -0.0673,-0.57294 -0.226783,-1.65989 -0.354401,-2.41544 -0.127623,-0.75554 -0.215558,-1.42315 -0.195422,-1.48357 0.05845,-0.17535 0.661933,2.75846 0.794547,3.86266 0.06641,0.55295 0.103111,1.1779797 0.08156,1.3889597 l -0.0392,0.38359 z M 50.988752,8.6977373 c -0.04243,-0.0424 -0.07979,-0.31589 -0.08299,-0.60767 -0.0031,-0.29178 -0.0958,-1.14136 -0.205767,-1.88795 -0.221446,-1.50345 -0.13845,-1.68036 0.143056,-0.30492 0.186768,0.91254 0.37697,2.87771 0.278527,2.87771 -0.03062,0 -0.09038,-0.0347 -0.132824,-0.0772 z m -0.823087,-2.99655 c -0.04357,-0.23228 -0.05608,-0.44549 -0.02778,-0.47378 0.0283,-0.0283 0.0871,0.13861 0.130672,0.37089 0.04357,0.23229 0.05608,0.44549 0.02778,0.47379 -0.0283,0.0283 -0.0871,-0.13862 -0.130672,-0.3709 z M 44.033126,20.735007 c -0.04082,-0.10632 -0.01592,-0.22931 0.05526,-0.27331 0.08834,-0.0546 -0.0084,-0.39751 -0.304841,-1.07991 -0.397999,-0.91636 -0.624236,-1.22409 -0.628755,-0.85523 -0.0013,0.098 -0.03653,0.0897 -0.109454,-0.0256 -0.05922,-0.0936 -0.138266,-0.13968 -0.175648,-0.1023 -0.03736,0.0374 0.143175,0.49108 0.401233,1.00824 0.258057,0.51715 0.518911,1.07102 0.579666,1.23083 0.06076,0.15981 0.143376,0.29056 0.183592,0.29056 0.0402,0 0.03972,-0.087 -8.75e-4,-0.1933 z m -0.390598,-0.96144 c -0.132902,-0.31981 -0.216638,-0.58146 -0.186072,-0.58146 0.07734,0 0.526331,1.0643 0.471931,1.1187 -0.02432,0.0243 -0.152956,-0.21744 -0.285859,-0.53724 z m -6.909907,0.0625 c 0.763928,-0.17508 1.996042,-0.54468 2.738032,-0.82133 1.388413,-0.51767 1.970407,-0.65308 3.713392,-0.86394 1.189256,-0.14388 1.361478,-0.19832 1.361478,-0.43034 0,-0.11187 -0.06611,-0.14825 -0.185893,-0.10229 -0.102245,0.0392 -0.94864,0.20174 -1.880884,0.36112 -0.932244,0.15938 -1.825207,0.31587 -1.984358,0.34775 -0.207005,0.0415 -0.239951,0.0281 -0.115745,-0.0471 0.09549,-0.0578 0.710618,-0.2139 1.366951,-0.34696 1.245974,-0.25258 1.847256,-0.47058 1.295219,-0.46959 -0.15915,2.8e-4 -0.704126,0.0744 -1.211059,0.16473 -0.506933,0.0903 -0.938784,0.14712 -0.959673,0.12624 -0.02091,-0.0209 0.498044,-0.17008 1.153187,-0.33153 1.300329,-0.32045 1.891637,-0.52046 1.802424,-0.60967 -0.03158,-0.0316 -0.338316,0.0154 -0.681597,0.10451 -0.343276,0.0891 -0.858526,0.19318 -1.145002,0.23134 l -0.520857,0.0694 0.636607,-0.20923 c 0.706572,-0.23222 1.340742,-0.53915 1.437515,-0.69573 0.03478,-0.0563 -0.235371,0.0156 -0.600333,0.15971 -0.52703,0.2081 -1.888316,0.47863 -1.739936,0.34577 0.01907,-0.0171 0.441016,-0.19924 0.937686,-0.40484 0.496666,-0.20559 0.88151,-0.39532 0.855214,-0.42162 -0.02629,-0.0263 -0.198273,0.01 -0.382172,0.0797 -0.490961,0.18725 -1.322893,0.32742 -1.250781,0.21074 0.03408,-0.0552 0.114367,-0.10029 0.178382,-0.10029 0.182218,0 1.271933,-0.48855 1.21553,-0.54495 -0.02773,-0.0277 -0.291568,0.0315 -0.586303,0.13152 -0.294735,0.10006 -0.677296,0.17782 -0.85014,0.17279 -0.233052,-0.007 -0.134801,-0.0716 0.380225,-0.25078 0.737715,-0.25669 0.720939,-0.41737 -0.02205,-0.21106 -0.672637,0.18679 -0.865477,0.13136 -0.226166,-0.065 0.686303,-0.2108 0.665073,-0.28997 -0.04117,-0.15348 -0.286476,0.0554 -0.755249,0.0968 -1.04172,0.0922 l -0.520862,-0.008 0.586955,-0.0983 c 1.173249,-0.19646 1.194081,-0.31076 0.04965,-0.27245 -0.604777,0.0203 -0.981625,0.0101 -0.837444,-0.0225 0.14418,-0.0326 0.232256,-0.10763 0.195723,-0.16674 -0.03889,-0.063 -1.538325,-0.10065 -3.618799,-0.091 -2.907683,0.0135 -3.342321,0.0347 -2.394914,0.11709 0.636607,0.0554 1.496025,0.14504 1.909819,0.19931 0.688706,0.0903 0.615264,0.10146 -0.868099,0.13142 -1.35591,0.0274 -1.507077,0.0468 -0.925975,0.1189 0.381966,0.0474 1.006998,0.0978 1.38896,0.11204 0.684862,0.0255 0.688068,0.0272 0.231495,0.12164 -0.254642,0.0527 -0.723419,0.10726 -1.04172,0.1213 l -0.578735,0.0256 0.636607,0.0696 0.636608,0.0696 -0.790933,0.0953 c -0.435014,0.0524 -1.112135,0.0617 -1.50471,0.0205 -0.510455,-0.0535 -0.664316,-0.0405 -0.54015,0.0459 0.09549,0.0664 0.642391,0.12514 1.215338,0.13059 1.538959,0.0147 0.879839,0.20374 -0.810225,0.23246 -1.138795,0.0193 -1.284725,0.0399 -0.810226,0.11374 0.318302,0.0496 0.891249,0.0984 1.273211,0.10841 1.148077,0.0302 0.393305,0.21422 -0.983848,0.23986 -1.010082,0.0188 -1.127371,0.0383 -0.69448,0.1153 0.286476,0.051 0.768272,0.0965 1.070659,0.10126 0.302386,0.005 0.549796,0.0607 0.549796,0.12432 0,0.069 -0.50272,0.1223 -1.244276,0.13195 l -1.244276,0.0162 1.142425,0.0942 c 0.628335,0.0518 1.1709,0.12263 1.205696,0.15743 0.03478,0.0348 -0.531384,0.0695 -1.258175,0.0772 -1.367004,0.0144 -1.34013,0.0492 0.241141,0.31263 0.585472,0.0975 0.52504,0.10834 -0.752353,0.13457 -1.082102,0.0222 -1.286675,0.0497 -0.925974,0.12428 0.254641,0.0527 0.723414,0.10408 1.04172,0.11425 0.573192,0.0183 0.57513,0.0196 0.202254,0.13925 -0.262905,0.0843 -0.750979,0.0829 -1.617839,-0.005 -0.682747,-0.0691 -1.258393,-0.10851 -1.279221,-0.0877 -0.08849,0.0885 1.639598,0.32995 2.868423,0.40078 l 1.331088,0.0767 -1.257746,0.0973 c -1.110508,0.0859 -2.213036,0.0495 -3.360855,-0.11093 -0.274174,-0.0383 -0.235983,-0.006 0.162353,0.13542 0.351961,0.12537 1.093254,0.20456 2.285997,0.24423 0.970828,0.0323 1.765138,0.0973 1.765138,0.14441 0,0.13267 -1.628613,0.24876 -2.509188,0.17885 -1.081753,-0.0859 -0.777927,0.0267 0.609113,0.22569 l 1.147723,0.16466 -1.647631,-0.0311 c -0.906197,-0.0171 -1.62024,-0.004 -1.586761,0.0298 0.22642,0.22642 1.849154,0.34794 4.218239,0.31588 2.35257,-0.0318 2.738552,-0.066 3.99326,-0.35357 z m -11.713603,-0.37181 c 0.203733,-0.10496 0.882132,-0.58453 1.507553,-1.06569 l 1.137123,-0.87486 -0.498398,-0.12071 c -0.376231,-0.0911 -0.524008,-0.194 -0.602887,-0.41973 -0.117027,-0.33489 0.134862,-0.99403 0.362039,-0.94738 0.132531,0.0272 0.5723,-0.50936 0.591172,-0.7213 0.01592,-0.17886 0.818743,-0.20736 1.025823,-0.0364 0.101365,0.0837 0.279835,0.30841 0.396604,0.49939 0.183089,0.29946 0.21236,0.31373 0.212731,0.10371 4.38e-4,-0.30503 -0.466765,-0.81939 -0.890964,-0.98067 -0.648861,-0.2467 -1.223658,-0.0223 -2.799045,1.09276 -0.573936,0.40622 -1.520476,0.98493 -2.103424,1.28601 l -1.059901,0.54742 -2.157893,-0.24958 c -1.18684,-0.13727 -2.275084,-0.27846 -2.418321,-0.31375 -0.224684,-0.0554 -0.260059,-0.0188 -0.257726,0.26669 0.0041,0.50096 0.57543,1.4438 1.039016,1.71463 0.346391,0.20237 0.673558,0.24588 2.25706,0.30018 3.672518,0.12594 3.865385,0.12229 4.259438,-0.0807 z m -1.836039,-0.41683 -0.33996,-0.37618 0.376178,0.33995 c 0.350648,0.3169 0.429379,0.4124 0.339961,0.4124 -0.0199,0 -0.189201,-0.16928 -0.376179,-0.37617 z m 0.315056,-0.0684 c -0.255131,-0.25513 -0.525478,-0.585 -0.600775,-0.73306 -0.0753,-0.14806 0.165718,0.0284 0.535583,0.39216 0.369866,0.36374 0.640217,0.69362 0.600775,0.73306 -0.03946,0.0395 -0.280456,-0.13703 -0.535583,-0.39216 z m -3.928608,0.0105 c -0.179138,-0.17506 -0.219024,-0.23426 -0.08864,-0.13155 0.130388,0.10271 0.341241,0.24437 0.468563,0.31478 0.127321,0.0704 0.167207,0.12962 0.08864,0.13156 -0.07857,0.002 -0.289425,-0.13972 -0.468563,-0.31479 z m 0.720353,0.15044 c -0.216999,-0.16212 -0.215777,-0.16562 0.03575,-0.10224 0.143236,0.0361 0.260429,0.11162 0.260429,0.16786 0,0.13775 -0.03411,0.13019 -0.29618,-0.0656 z m 2.596351,-0.0347 c -0.143975,-0.18358 -0.13988,-0.18768 0.0437,-0.0437 0.192805,0.15121 0.254116,0.24626 0.158854,0.24626 -0.02402,0 -0.115186,-0.0911 -0.202557,-0.20256 z m -4.281934,-0.0634 c -0.237202,-0.18059 -0.796157,-0.9984 -0.796157,-1.16487 0,-0.0689 0.08591,0.004 0.190901,0.16084 0.104996,0.1574 0.375997,0.4815 0.602224,0.72023 0.394276,0.41606 0.396059,0.58302 0.003,0.2838 z m 0.239332,-0.27369 -0.398882,-0.42394 0.491923,0.38544 c 0.270558,0.21199 0.491924,0.40276 0.491924,0.42394 0,0.1383 -0.242553,-0.0215 -0.584965,-0.38544 z m 7.514998,-1.05183 c -0.146941,-0.18736 -0.141495,-0.18982 0.07264,-0.0328 0.127325,0.0934 0.253198,0.18454 0.279721,0.20255 0.02651,0.018 -0.0062,0.0328 -0.07264,0.0328 -0.06647,0 -0.19235,-0.0911 -0.279721,-0.20256 z m 0.237497,-0.22088 -0.280605,-0.3077 0.376178,0.27159 c 0.391289,0.2825 0.441322,0.3438 0.280605,0.3438 -0.05256,0 -0.221844,-0.13846 -0.376178,-0.30769 z m 17.422595,1.55197 c -0.03128,-0.75254 -0.03959,-0.78129 -0.225449,-0.78129 -0.229005,0 -0.220133,0.35759 0.02144,0.86417 0.107281,0.22497 0.201677,0.40904 0.209766,0.40904 0.0081,0 0.0055,-0.22136 -0.0057,-0.49192 z m -20.853449,-2.0116 c 0.332104,-0.16738 0.968427,-0.5416 1.414049,-0.8316 0.445626,-0.28999 1.070658,-0.67296 1.38896,-0.85103 0.318306,-0.17808 0.49461,-0.32472 0.391787,-0.32587 -0.371633,-0.004 -0.7969,-0.46123 -0.7969,-0.85648 0,-0.38469 0.231604,-0.81273 0.453654,-0.83842 0.252231,-0.0292 0.3052,-0.0571 0.645939,-0.34109 l 0.34724,-0.28937 -0.318302,0.11704 c -0.51213,0.18833 -0.365745,0.015 0.197924,-0.23433 0.547749,-0.2423 0.940682,-0.21685 1.436009,0.093 0.389775,0.24384 0.271362,-0.0546 -0.145011,-0.36546 -0.253473,-0.18924 -0.49115,-0.2384 -1.150169,-0.23788 -0.908506,8.7e-4 -1.429609,0.18503 -4.790647,1.69445 -1.400932,0.62915 -1.704026,0.72312 -2.481304,0.76927 -1.016747,0.0604 -2.193658,-0.16353 -3.619217,-0.68854 -1.055547,-0.38875 -1.149083,-0.34545 -1.039746,0.48122 0.111371,0.84205 0.474469,1.47149 1.1305,1.95975 0.94027,0.6998 1.075315,0.74078 2.909191,0.88271 2.918199,0.22585 3.333484,0.21168 4.026043,-0.13738 z m -2.698876,-0.36121 c -0.242889,-0.4869 -0.244807,-0.49192 -0.187964,-0.49192 0.0293,0 0.160831,0.1823 0.292294,0.40511 0.131462,0.22281 0.197495,0.40511 0.146738,0.40511 -0.05076,0 -0.163737,-0.14323 -0.251068,-0.3183 z m 0.828301,-0.0884 c -0.39461,-0.44944 -0.757422,-1.08783 -0.668674,-1.17657 0.03137,-0.0314 0.119357,0.0646 0.195535,0.21331 0.07618,0.14869 0.377933,0.51775 0.670569,0.82014 0.350249,0.36192 0.468433,0.54979 0.345851,0.54979 -0.102418,0 -0.346894,-0.183 -0.543281,-0.40667 z m -3.751467,-0.1838 -0.487441,-0.47472 0.549796,0.44136 c 0.302389,0.24275 0.549797,0.45638 0.549797,0.47472 0,0.10901 -0.181146,-0.0216 -0.612152,-0.44136 z m 3.254442,0.2143 c -0.191709,-0.30771 -0.454531,-0.89704 -0.40005,-0.89704 0.02095,0 0.199983,0.26043 0.397852,0.57873 0.197868,0.31831 0.315816,0.57874 0.262106,0.57874 -0.05371,0 -0.170668,-0.11719 -0.259908,-0.26043 z m -3.831845,-0.30501 c -0.357085,-0.39525 -0.882006,-1.19475 -0.578689,-0.88139 0.568837,0.58766 1.096669,1.23101 1.049047,1.27864 -0.03221,0.0322 -0.243872,-0.14655 -0.470358,-0.39725 z m 1.174791,0.24713 c -0.143974,-0.18358 -0.13988,-0.18767 0.0437,-0.0437 0.192805,0.15121 0.254119,0.24626 0.158856,0.24626 -0.02403,0 -0.115186,-0.0912 -0.202556,-0.20256 z m -1.798613,-0.44656 c -0.29855,-0.31656 -1.097451,-1.60058 -0.820395,-1.31857 0.05042,0.0513 0.982784,1.21385 1.276413,1.59152 0.247825,0.31874 -0.08697,0.11835 -0.456018,-0.27295 z m 8.726829,-0.69402 c -0.136477,-0.13648 -0.0966,-0.29851 0.05102,-0.20728 0.09318,0.0576 0.110404,0.0185 0.05522,-0.12529 -0.06779,-0.17666 -0.05293,-0.18635 0.09608,-0.0627 0.188343,0.15631 0.247698,0.40725 0.07041,0.29768 -0.05822,-0.036 -0.124416,-0.01 -0.147094,0.0583 -0.02266,0.068 -0.07921,0.0857 -0.125632,0.0393 z m 0.455041,-0.37253 c -0.10571,-0.1168 -0.192202,-0.28041 -0.192202,-0.36355 0,-0.0831 0.110111,-0.0112 0.244689,0.15989 0.280378,0.35644 0.237243,0.52381 -0.05249,0.20366 z m 2.392283,2.13652 c 0.207828,-0.0868 0.516737,-0.32291 0.686466,-0.52463 0.26301,-0.31257 0.291148,-0.41266 0.190456,-0.67749 -0.175775,-0.46232 -0.332471,-0.60769 -0.655056,-0.60769 -0.285128,0 -0.873347,0.51801 -1.262317,1.11166 -0.411215,0.62759 0.210645,1.04487 1.040451,0.69815 z m -0.589571,-0.16354 c -0.27857,-0.045 -0.245747,-0.25731 0.03977,-0.25731 0.093,0 0.377509,-0.13157 0.632242,-0.29237 0.419846,-0.26504 0.450521,-0.31644 0.328096,-0.5498 -0.134228,-0.25585 -0.133537,-0.25608 0.113282,-0.0369 0.339926,0.30181 0.312575,0.47258 -0.127841,0.79821 -0.446759,0.33034 -0.634857,0.39488 -0.985562,0.3382 z m 0.493643,-2.64454 c 0.577497,-0.27676 0.700771,-0.38769 0.731827,-0.6586 0.04433,-0.3867 -0.239435,-0.86372 -0.593893,-0.99838 -0.302719,-0.115 -0.831779,0.0799 -1.4061,0.51794 -0.220086,0.16786 -0.455785,0.27083 -0.523776,0.22881 -0.06799,-0.042 -0.111261,-0.0335 -0.09615,0.019 0.01509,0.0525 -0.03898,0.21529 -0.120151,0.36181 -0.241744,0.43631 -0.125623,0.75902 0.325603,0.90486 0.456795,0.14764 0.708085,0.0916 1.682645,-0.37546 z m -1.649393,0.11139 c -0.22607,-0.0912 -0.170341,-0.23764 0.11575,-0.30409 0.28424,-0.066 1.443267,-0.54897 1.683034,-0.70129 0.088,-0.0559 0.120693,-0.19793 0.07955,-0.3456 -0.06479,-0.23256 -0.05275,-0.22976 0.166338,0.0387 0.129897,0.15915 0.237331,0.3464 0.238748,0.41611 0.0094,0.46596 -1.693367,1.13428 -2.283424,0.89619 z m 15.874923,-0.41708 c 0.375741,-0.17591 0.661661,-0.34133 0.635369,-0.36762 -0.02629,-0.0263 -0.333714,0.0509 -0.683167,0.17151 -0.719687,0.2484 -1.347396,0.30229 -0.686916,0.059 0.658192,-0.24249 1.289746,-0.59145 1.787746,-0.98782 0.575822,-0.45832 0.820992,-0.84686 0.276213,-0.43775 -0.578275,0.43427 -1.514417,0.87773 -2.266279,1.07356 -0.899977,0.23442 -1.149723,0.20322 -0.440614,-0.055 0.830091,-0.30231 1.430555,-0.5907 2.056409,-0.98765 0.747383,-0.47403 0.694353,-0.6055 -0.0702,-0.17401 -0.776234,0.43808 -2.203358,0.92877 -2.672031,0.91874 -0.279765,-0.006 -0.219709,-0.0433 0.280701,-0.17421 0.810221,-0.21204 2.430619,-1.00276 2.725661,-1.33006 0.176045,-0.1953 0.0599,-0.15991 -0.526471,0.16043 -0.413796,0.22606 -1.142998,0.53839 -1.620455,0.69406 -0.980286,0.31962 -2.019556,0.48772 -1.908956,0.30876 0.03885,-0.0629 0.188689,-0.11435 0.332935,-0.11435 0.436462,0 1.881991,-0.53973 2.794321,-1.04335 1.111535,-0.61358 1.248428,-0.83049 0.186685,-0.2958 -0.798619,0.40218 -2.042222,0.78937 -2.967563,0.92394 -0.320283,0.0466 -0.141901,-0.0511 0.578731,-0.31681 1.040674,-0.38376 3.232672,-1.45611 3.148499,-1.54028 -0.0245,-0.0245 -0.430398,0.13358 -0.902028,0.35125 -0.889022,0.41031 -2.281889,0.82462 -2.394313,0.7122 -0.03539,-0.0354 0.0017,-0.0644 0.08256,-0.0644 0.366807,0 3.57454,-1.6800497 3.448461,-1.8061297 -0.02472,-0.0247 -0.336264,0.11287 -0.692345,0.3057297 -0.597887,0.32383 -2.284671,0.9613 -2.355698,0.89027 -0.01697,-0.017 0.458449,-0.28047 1.056542,-0.5855 1.023552,-0.5220097 2.254345,-1.4614797 2.254345,-1.7207497 0,-0.0644 -0.194441,0.0537 -0.432091,0.26237 -0.417611,0.36667 -2.1704,1.2650497 -2.468171,1.2650497 -0.08035,0 0.268666,-0.2492797 0.775599,-0.5539597 0.932677,-0.56055 2.008914,-1.39055 2.008914,-1.54927 0,-0.0476 -0.425285,0.17178 -0.945084,0.48749 -0.519795,0.31571 -0.988568,0.57402 -1.04172,0.57402 -0.19641,0 -0.08598,-0.11572 0.301131,-0.31554 0.477653,-0.24656 1.937615,-1.43879 1.858621,-1.51779 -0.03067,-0.0307 -0.147252,0.0266 -0.259047,0.12728 -0.21309,0.19191 -1.330728,0.78008 -1.482298,0.78008 -0.04837,0 0.219627,-0.20039 0.595543,-0.4453 0.37592,-0.24491 0.78766,-0.56638 0.914981,-0.71438 0.241368,-0.28055 0.127115,-0.24356 -0.422979,0.13694 -0.495603,0.3428 -0.535959,0.24391 -0.06042,-0.14806 0.469779,-0.38724 0.498547,-0.55068 0.05927,-0.33675 -0.263443,0.1283 -0.262953,0.12525 0.01903,-0.11921 0.277451,-0.24053 0.420113,-0.68818 0.219324,-0.68818 -0.05297,0 -0.06305,-0.0867 -0.0224,-0.1926 0.04936,-0.12863 0.02935,-0.16508 -0.06018,-0.10974 -0.08329,0.0515 -0.111375,0.0237 -0.07413,-0.0734 0.132273,-0.3447 -0.449551,-0.66296 -1.438748,-0.78699 -1.068712,-0.13401 -1.605699,-0.31464 -3.77459,-1.26974 -3.750483,-1.65157 -5.663931,-2.12624 -9.606443,-2.38308 -1.400242,-0.0912 -3.197211,-0.24606002 -3.993258,-0.34410002 -2.062367,-0.25399 -8.651579,-0.35086 -11.980313,-0.17612 -1.464195,0.0769 -3.6112578,0.1898 -4.7712507,0.25099 -1.1599925,0.0612 -2.5142285,0.18734 -3.0094135,0.28034002 -0.4951846,0.093 -1.3867036,0.22342 -1.9811526,0.28985 -1.265636,0.14141 -1.72462001,0.33929 -1.81814501,0.78385 -0.03659,0.17391 -0.08488,0.40861 -0.10732,0.52156 -0.06344,0.3193 0.168288,1.04143 0.422595,1.31694 0.12645501,0.13699 0.45753401,0.3064 0.73573201,0.37645 0.50864,0.12807 4.3224377,0.16937 4.6330866,0.0502 0.319246,-0.12251 0.1579757,-0.3304 -0.4657098,-0.60034 -0.3454923,-0.14953 -0.7222268,-0.34719 -0.8371881,-0.43924 -0.1149613,-0.0921 0.014117,-0.0589 0.2868454,0.0737 1.0095145,0.49074 1.5366776,0.59253 0.6037273,0.11657 -0.2546425,-0.12991 -0.4629865,-0.26252 -0.4629865,-0.29469 0,-0.0322 0.1536715,0.021 0.3414921,0.1181 0.4222001,0.21833 0.7059014,0.23302 0.4167449,0.0216 -0.2022531,-0.14789 -0.2025082,-0.15864 -0.00556,-0.23422 0.2524175,-0.0969 0.2276883,-0.13594 0.3562137,0.56284 l 0.1064456,0.57874 0.5787334,0.0767 c 0.7758727,0.10279 4.5420632,0.1161 5.6781002,0.0201 1.73884,-0.14698 0.470413,-0.23441 -2.608584,-0.1798 -3.0279147,0.0537 -3.073438,0.051 -3.3588831,-0.19821 -0.2550087,-0.22265 -0.2593479,-0.23813 -0.036546,-0.13037 0.380457,0.18401 0.5765562,0.14854 0.3190991,-0.0577 -0.2170392,-0.17389 -0.216082,-0.17585 0.028142,-0.0579 0.3280169,0.15846 0.534132,0.15601 0.4345227,-0.005 -0.057206,-0.0926 -0.013771,-0.0926 0.1591797,0 0.3663753,0.19608 0.5433423,0.16398 0.3540531,-0.0642 -0.1477993,-0.17818 -0.1330737,-0.17818 0.211573,0 0.4330453,0.22388 0.5412665,0.23994 0.4326608,0.0642 -0.057206,-0.0926 -0.013771,-0.0926 0.1591796,0 0.3595491,0.19242 0.4284962,0.15359 0.1917579,-0.108 -0.1804419,-0.19938 -0.1301869,-0.18904 0.3293007,0.0678 0.2982314,0.16668 0.5422395,0.24653 0.5422395,0.17742 0,-0.0691 -0.03907,-0.1268 -0.08681,-0.12821 -0.047746,-10e-4 -0.2170251,-0.10951 -0.3761768,-0.24021 -0.2169074,-0.17813 -0.1563934,-0.16299 0.2416629,0.0605 0.7011129,0.39355 0.7998159,0.37601 0.3876619,-0.0689 l -0.3399578,-0.36697 0.3472398,0.23239 c 0.559915,0.37473 0.870593,0.43656 0.462986,0.0921 l -0.34724,-0.29341 0.559393,0.23567 c 0.719117,0.30296 0.933964,0.29862 0.45339,-0.009 -0.478365,-0.30635 -0.487194,-0.39728 -0.01486,-0.15302 0.198725,0.10276 0.59299,0.20246 0.876146,0.22155 l 0.514828,0.0347 -0.268476,-0.297 -0.268476,-0.29701 0.34724,0.23307 c 0.623199,0.41829 0.700012,0.42856 0.34724,0.0464 l -0.34724,-0.37612 0.462987,0.2648 0.462987,0.26481 -0.225004,-0.2588 c -0.212826,-0.2448 -0.213365,-0.25434 -0.0099,-0.17628 0.156883,0.0602 0.190486,0.0428 0.124226,-0.0644 -0.07179,-0.11616 -0.03904,-0.11925 0.156285,-0.0147 0.135912,0.0727 0.240202,0.091 0.231754,0.0405 -0.0084,-0.0505 -0.0024,-0.27407 0.01356,-0.49688 0.01935,-0.27109 0.05983,-0.13706 0.122349,0.40511 0.180241,1.56304 0.170002,1.54039 0.734625,1.62506 1.000168,0.14999 3.746532,0.12161 3.90889,-0.0404 0.12517,-0.12489 -0.04142,-0.14902 -0.947729,-0.13728 -2.440485,0.0316 -2.960707,0.003 -3.189848,-0.17596 -0.211729,-0.16528 -0.204664,-0.17096 0.122561,-0.0986 l 0.34724,0.0768 -0.289367,-0.24804 -0.289367,-0.24803 0.430333,0.17299 c 0.578659,0.23262 0.668683,0.21416 0.322021,-0.066 l -0.289367,-0.23389 0.448186,0.17859 c 0.719474,0.28669 0.860908,0.23206 0.470506,-0.18175 l -0.339959,-0.36035 0.613467,0.37384 c 0.672882,0.41005 0.94638,0.40976 0.37038,-3.9e-4 -0.514178,-0.36612 -0.357767,-0.40588 0.243847,-0.062 0.665723,0.38055 0.963813,0.38234 0.508507,0.003 l -0.34724,-0.28926 0.52086,0.28844 c 0.716923,0.39702 1.132815,0.39527 0.547729,-0.002 -0.237591,-0.16145 -0.431983,-0.31585 -0.431983,-0.34313 0,-0.0272 0.238705,0.0527 0.530456,0.1778 0.69039,0.29593 0.900309,0.28732 0.424454,-0.0174 -0.206897,-0.13251 -0.376176,-0.25857 -0.376176,-0.28016 0,-0.0216 0.344174,0.11681 0.764833,0.30754 0.905472,0.41056 1.1346,0.3627 0.296587,-0.062 -0.70936,-0.35946 -0.868633,-0.55874 -0.278101,-0.34796 0.63335,0.22606 0.828857,0.19568 0.432021,-0.0671 -0.417312,-0.27638 -0.360869,-0.28729 0.292869,-0.0566 0.602168,0.21246 0.734125,0.14475 0.227991,-0.11698 -0.202814,-0.10488 -0.34233,-0.21712 -0.310037,-0.24941 0.03229,-0.0323 0.154328,-0.01 0.271187,0.0504 0.116858,0.06 0.368728,0.1437 0.55971,0.18597 l 0.34724,0.0769 -0.289367,-0.23161 -0.289367,-0.23161 0.578734,0.21358 c 0.687987,0.25389 1.556806,0.42454 1.38896,0.27282 -0.06366,-0.0575 -0.337371,-0.17419 -0.608245,-0.25921 -0.667013,-0.20937 -0.556593,-0.2585 0.247062,-0.10994 0.364024,0.0673 0.828594,0.10447 1.032383,0.0826 0.359166,-0.0385 0.354555,-0.0435 -0.15034,-0.16337 -0.45836,-0.1088 -0.38197,-0.11894 0.636608,-0.0846 0.636607,0.0215 2.25127,0.0708 3.588145,0.10969 1.336875,0.0388 3.081755,0.1047 3.877513,0.14635 l 1.446837,0.0757 -1.04172,0.20003 c -1.432611,0.27509 -3.518032,0.42539 -6.192448,0.44631 -1.339819,0.0105 -2.547077,0.0789 -2.970709,0.16832 -0.392506,0.0829 -1.390801,0.47326 -2.218433,0.86754 l -1.504786,0.71688 0.221371,0.36304 c 0.121753,0.19967 0.22137,0.49326 0.22137,0.65241 0,0.31325 -0.403633,1.06076 -0.547517,1.01397 -0.143594,-0.0467 -0.962927,0.50216 -0.900475,0.6032 0.06281,0.10164 -0.326962,0.23181 -0.692456,0.23126 -0.127322,-1.9e-4 -0.622139,-0.23872 -1.099594,-0.53007 -0.477455,-0.29135 -0.744383,-0.49325 -0.593175,-0.44866 0.187778,0.0554 0.24982,0.0405 0.195726,-0.0471 -0.04356,-0.0705 -0.188978,-0.12814 -0.323153,-0.12814 -0.134174,0 -0.211655,-0.0323 -0.172179,-0.0718 0.141237,-0.14124 0.674541,0.0843 1.098256,0.46447 0.606815,0.54445 0.862377,0.59731 1.468644,0.30383 0.726986,-0.35193 1.335295,-1.05841 1.335295,-1.55078 0,-0.54793 -0.256705,-0.7387 -0.732696,-0.54452 -0.201794,0.0823 -0.910825,0.32715 -1.575624,0.54405 -1.758729,0.57382 -2.205801,0.91127 -2.205801,1.66495 0,0.38506 0.07717,0.54016 0.458428,0.92142 0.878258,0.87826 2.408127,1.04984 5.25129,0.58895 1.532417,-0.24841 2.221682,-0.49095 2.123363,-0.74716 -0.03105,-0.0809 -0.01456,-0.3248 0.03664,-0.54198 0.08742,-0.37074 0.09382,-0.35829 0.104948,0.20385 0.0113,0.57074 0.02941,0.60409 0.388024,0.71437 0.767025,0.23586 3.864585,0.57784 5.389742,0.59504 0.08371,8.7e-4 0.443514,-0.29778 0.799555,-0.66383 0.39048,-0.40145 0.545343,-0.51659 0.390274,-0.29015 -0.141394,0.20646 -0.219692,0.43587 -0.174003,0.5098 0.05521,0.0893 0.03215,0.10293 -0.06878,0.0406 -0.154386,-0.0954 -0.142715,0.0225 0.05729,0.57895 0.05279,0.14683 0.0013,0.11474 -0.14026,-0.0877 -0.122916,-0.17558 -0.256545,-0.28617 -0.296962,-0.24575 -0.09537,0.0954 0.203138,0.67438 0.649307,1.2594697 l 0.353058,0.46299 -0.377027,-0.34724 c -0.207364,-0.19099 -0.481796,-0.5165197 -0.609852,-0.7234197 -0.324373,-0.52409 -0.499159,-0.47226 -0.224298,0.0665 0.301809,0.5915897 1.707821,2.0837297 2.584248,2.7425497 1.284029,0.96522 2.923663,1.62982 4.69661,1.9037 0.361978,0.0559 1.90821,0.0926 3.436066,0.0816 2.772417,-0.02 2.779272,-0.0207 3.461087,-0.33991 z m -6.375377,0.024 c -0.771382,-0.10047 -2.62373,-0.57051 -2.547746,-0.6465 0.0255,-0.0255 0.379415,0.0346 0.786497,0.13357 0.407081,0.099 1.677697,0.22854 2.823589,0.28797 1.145894,0.0594 2.109482,0.11582 2.141312,0.12532 0.03185,0.009 -0.150467,0.0604 -0.405112,0.11304 -0.567965,0.11747 -1.840545,0.11139 -2.79854,-0.0134 z m -0.731735,-0.64746 c -1.17086,-0.17776 -3.12516,-0.81607 -3.12516,-1.02075 0,-0.037 0.143236,0.007 0.318302,0.0973 0.510669,0.26385 1.191588,0.41433 3.188125,0.70457 1.853102,0.26938 1.863894,0.27262 0.89195,0.26777 -0.541119,-0.003 -1.114066,-0.0247 -1.273217,-0.0488 z m -1.331087,-0.72228 c -0.677493,-0.19754 -1.909818,-0.76853 -1.909818,-0.8849 0,-0.0321 0.195321,0.0398 0.434047,0.15971 0.597148,0.29988 1.472866,0.57685 2.417118,0.76449 0.743844,0.14781 0.761426,0.15812 0.273995,0.16057 -0.286476,10e-4 -0.833376,-0.0885 -1.215342,-0.19987 z m -0.34724,-0.52226 c -0.600565,-0.19074 -1.718636,-0.76172 -1.641873,-0.83848 0.03272,-0.0327 0.18112,0.006 0.329811,0.0859 0.148687,0.08 0.739115,0.31596 1.312062,0.52445 0.986835,0.3591 0.986835,0.54152 0,0.22811 z m 1.122411,-0.58067 c -0.528571,-0.086 -0.993227,-0.18863 -1.032573,-0.22798 -0.03933,-0.0393 0.184769,-0.0338 0.498044,0.0123 0.730204,0.10753 2.280486,0.11271 3.463255,0.0115 0.924574,-0.079 0.925187,-0.0789 0.405112,0.0881 -0.759737,0.24401 -2.232601,0.29525 -3.333838,0.11598 z m 1.539766,-0.54726 c 1.078029,-0.13797 2.640288,-0.5143 3.08091,-0.74216 0.19532,-0.101 0.384263,-0.15451 0.419873,-0.1189 0.03561,0.0356 -0.216643,0.19335 -0.560554,0.35054 -0.697766,0.31892 -2.397358,0.65128 -3.215823,0.62886 -0.471384,-0.0129 -0.438776,-0.0269 0.275594,-0.11834 z M 25.563066,8.7667873 c 0,-0.0592 0.07079,-0.10767 0.157309,-0.10767 0.08652,0 0.450592,-0.14793 0.809049,-0.32874 0.358456,-0.18081 0.590957,-0.25551 0.516666,-0.16599 -0.273141,0.32911 -1.483024,0.82057 -1.483024,0.6024 z m 1.273333,-0.21651 c 0.222881,-0.1179 0.504405,-0.32394 0.62561,-0.45787 0.121209,-0.13394 0.273469,-0.24351 0.338359,-0.24351 0.175083,0 -0.394683,0.57547 -0.755782,0.76335 -0.171908,0.0894 -0.380252,0.16032 -0.46299,0.1575 -0.08273,-0.003 0.03194,-0.10157 0.254803,-0.21947 z m 1.157347,-0.52777 c 0.410117,-0.41379 0.762025,-0.75235 0.782018,-0.75235 0.01999,0 -0.0231,0.11107 -0.09574,0.24681 -0.188247,0.35175 -1.115766,1.2579 -1.287564,1.2579 -0.07941,0 0.191165,-0.33856 0.601282,-0.75236 z m -8.907674,0.59277 c -0.0027,-0.0559 0.177483,-0.30351 0.400295,-0.55014 0.222812,-0.24662 0.405113,-0.40485 0.405113,-0.35161 0,0.1333 -0.799412,1.02833 -0.805408,0.90175 z m 0.458168,0.0142 c 0,-0.0319 0.187354,-0.36383 0.416341,-0.73759 0.383899,-0.62661 0.449074,-0.49493 0.09749,0.19696 -0.141224,0.27792 -0.513829,0.66996 -0.513829,0.54063 z m 5.787331,-0.13501 c 0.322497,-0.19431 0.576128,-0.245 0.39933,-0.0798 -0.06048,0.0565 -0.240175,0.1368 -0.39933,0.17845 l -0.289367,0.0757 z m -5.075956,-0.35881 c 0.13232,-0.22426 0.309379,-0.62793 0.393467,-0.89704 0.118499,-0.37923 0.154627,-0.4228 0.160629,-0.1937 0.0086,0.32749 -0.533114,1.49849 -0.693187,1.49849 -0.05582,0 0.0068,-0.18349 0.139091,-0.40775 z m 0.390471,0.0894 c 0.04669,-0.11141 0.183133,-0.48903 0.303204,-0.83917 l 0.218311,-0.6366 -0.07301,0.52086 c -0.04016,0.28647 -0.146321,0.6641 -0.235919,0.83916 -0.178359,0.3485 -0.34909,0.44146 -0.212582,0.11575 z m 0.402861,0.007 c 0,-0.0691 0.08089,-0.30087 0.179746,-0.51508 l 0.179746,-0.38946 -0.06617,0.4015 c -0.06327,0.38389 -0.293322,0.77843 -0.293322,0.50304 z m -5.2086,-1.36752 c -0.52484,-0.4385 -0.525196,-0.50309 -0.0013,-0.23216 0.309697,0.16015 0.366348,0.15372 0.765066,-0.0868 0.236831,-0.14287 0.630639,-0.44897 0.875128,-0.6802 0.413296,-0.3909 0.444527,-0.40216 0.444527,-0.16029 0,0.34188 -0.361709,0.78929 -0.984543,1.2178 -0.2772,0.19072 -0.528752,0.34677 -0.559005,0.34677 -0.03025,0 -0.273204,-0.1823 -0.539893,-0.40511 z m 24.374722,-0.49048 c -0.376436,-0.29558 -1.078336,-0.76189 -1.559778,-1.03626 -1.085436,-0.61856 -0.980947,-0.63964 0.259463,-0.0523 0.94829,0.449 1.716115,0.9868 2.012014,1.40925 0.252813,0.36094 0.02647,0.25895 -0.711699,-0.32066 z m 2.652127,-0.14613 c 0.03933,-0.0637 0.123619,-0.11575 0.18728,-0.11575 0.06366,0 0.08356,0.0521 0.04421,0.11575 -0.03933,0.0637 -0.123624,0.11574 -0.187284,0.11574 -0.06366,0 -0.08356,-0.0521 -0.04421,-0.11574 z m -4.224753,-1.41584 c -0.541117,-0.25846 -1.348451,-0.59021 -1.794073,-0.73721 -0.445626,-0.147 -0.713741,-0.2696 -0.595809,-0.27245 0.550794,-0.0133 3.547347,1.21384 3.547347,1.4527 0,0.0921 -0.187092,0.0204 -1.157465,-0.44304 z m -15.925734,-0.34875 c -0.104572,-0.20689 -0.29729,-0.49336 -0.428264,-0.6366 -0.130973,-0.14324 -0.186046,-0.26043 -0.122386,-0.26043 0.198147,0 0.61963,0.52427 0.729517,0.90744 0.134942,0.47051 0.06206,0.46627 -0.178867,-0.0104 z m 0.121108,-0.63944 c -0.343434,-0.41322 -0.385172,-0.50168 -0.170686,-0.36179 0.322903,0.21061 0.767838,0.76617 0.682195,0.85182 -0.03132,0.0313 -0.261487,-0.18921 -0.511509,-0.49003 z m -19.6138566,0.20627 c -0.095491,-0.0612 -0.2560312,-0.0857 -0.3567572,-0.0545 -0.101901,0.0316 -0.281602,-0.0594 -0.405113,-0.2052 l -0.221977,-0.26207 0.240607,0.20256 c 0.30756,0.25892 0.472556,0.26235 0.265489,0.006 -0.149595,-0.18555 -0.142172,-0.18555 0.127328,0 0.3676551,0.25313 0.726806,0.27456 0.4014822,0.024 -0.1347222,-0.10378 0.00703,-0.0746 0.3540541,0.0729 0.3183032,0.13528 0.6047763,0.27293 0.6366069,0.30591 0.066894,0.0693 -0.302466,-0.0217 -0.6266576,-0.15439 -0.1561143,-0.0639 -0.1968273,-0.0507 -0.1378527,0.0447 0.1008954,0.16326 -0.038541,0.17359 -0.2772097,0.0206 z m 1.0534223,-0.12122 c -0.2800367,-0.12706 -0.4834272,-0.25674 -0.4519794,-0.28819 0.031449,-0.0314 0.338698,0.0707 0.6827777,0.22689 0.3440798,0.15623 0.5474703,0.28591 0.4519794,0.28818 -0.095491,0.002 -0.4027411,-0.0998 -0.6827777,-0.22688 z m 0.5895569,-0.10947 c -0.3943531,-0.1865 -0.7170061,-0.36129 -0.7170061,-0.38842 0,-0.0489 1.4025263,0.48973 1.4950612,0.57421 0.026524,0.0242 0.023641,0.0686 -0.00641,0.0987 -0.03005,0.0301 -0.3772914,-0.0979 -0.7716445,-0.28445 z M 36.84837,3.6086473 c -0.254645,-0.0951 -0.90572,-0.29591 -1.446838,-0.44635 -0.541113,-0.15043 -0.879674,-0.2772 -0.752353,-0.2817 0.326758,-0.0115 2.321468,0.53448 2.696815,0.73824 0.403367,0.21897 0.09956,0.21275 -0.497624,-0.0102 z m -4.977111,-0.15809 -1.04172,-0.072 1.331087,-0.0103 c 0.732098,-0.006 1.4613,0.0314 1.620455,0.0823 0.346715,0.11104 -0.303309,0.11104 -1.909822,0 z M 11.90496,3.3348173 c -0.104322,-0.0674 -0.118598,-0.11291 -0.03577,-0.11398 0.07582,-8.7e-4 0.170043,0.0503 0.209388,0.11398 0.08881,0.1437 0.04874,0.1437 -0.173621,0 z m 16.877309,-0.0791 c 0.08356,-0.0334 0.183386,-0.0293 0.221848,0.009 0.03845,0.0384 -0.02988,0.0658 -0.151915,0.0608 -0.13484,-0.006 -0.162265,-0.033 -0.06993,-0.0699 z m 0.831932,-0.15288 c 0.286471,-0.0568 1.197975,-0.12871 2.025567,-0.15975 1.229958,-0.0461 1.325064,-0.0396 0.520858,0.0358 -1.875643,0.17583 -3.111187,0.23597 -2.546425,0.12395 z M 20.860408,13.913347 c 0.262848,-0.0911 0.907615,-0.35785 1.432815,-0.59269 0.899888,-0.40236 1.168401,-0.61039 0.787853,-0.61039 -0.498447,0 -0.687087,-1.06781 -0.300615,-1.70165 0.238052,-0.39042 0.859536,-0.78665 1.049603,-0.66919 0.06168,0.0381 0.227995,-0.0119 0.369595,-0.11101 0.141599,-0.0992 0.353106,-0.18033 0.470019,-0.18033 0.116914,0 0.180381,-0.0521 0.141036,-0.1157397 -0.09347,-0.15124 0.01339,-0.1465 0.325913,0.0145 0.392417,0.2021097 0.787573,0.5944997 0.904946,0.8986197 0.165546,0.42895 0.25598,0.19546 0.103382,-0.26692 -0.319789,-0.9689697 -1.272007,-1.2202197 -3.580979,-0.9448597 -2.603612,0.31049 -3.9079,0.3982897 -4.373452,0.29441 -0.242196,-0.054 -0.983305,-0.15368 -1.646909,-0.22142 -1.407022,-0.14362 -1.974357,-0.40859 -2.500532,-1.16786 l -0.334184,-0.48223 -0.204606,0.25268 c -0.420078,0.51877 -0.460349,1.00854 -0.197874,2.4064897 0.377964,2.01305 0.679537,2.30678 2.939041,2.86258 2.696142,0.6632 3.500228,0.72158 4.614948,0.33505 z m -2.165598,-0.29601 c -0.208033,-0.3244 -0.465702,-1.25098 -0.373517,-1.34316 0.03601,-0.036 0.06599,0.008 0.06661,0.0985 6.12e-4,0.0902 0.131948,0.44499 0.291835,0.78847 0.304091,0.65324 0.312925,0.92068 0.01507,0.4562 z m 0.362359,-0.29941 c -0.305645,-0.57476 -0.610563,-1.63205 -0.501987,-1.74063 0.0347,-0.0347 0.06309,0.0135 0.06309,0.10701 0,0.0936 0.208344,0.60093 0.462986,1.1275 0.503598,1.04138 0.508635,1.05592 0.365636,1.05592 -0.05354,0 -0.228918,-0.24741 -0.38972,-0.5498 z m -0.89865,0.0375 c -0.06544,-0.17212 -0.115316,-0.40071 -0.11083,-0.50798 0.0045,-0.10726 0.08282,0.009 0.17408,0.25786 0.09126,0.24909 0.141132,0.47768 0.11083,0.50798 -0.0303,0.0303 -0.108639,-0.0857 -0.17408,-0.25786 z m -0.408352,-0.18214 c -0.04395,-0.20008 -0.05578,-0.38792 -0.02629,-0.41741 0.02949,-0.0295 0.08689,0.11277 0.127565,0.31613 0.09649,0.48247 0.003,0.57597 -0.101278,0.10128 z m 3.99326,-0.23832 c 0,-0.0674 0.05209,-0.0904 0.115747,-0.0511 0.06366,0.0393 0.115746,0.0945 0.115746,0.12258 0,0.0281 -0.05209,0.0511 -0.115746,0.0511 -0.06366,0 -0.115747,-0.0552 -0.115747,-0.12258 z m -6.914582,-0.13506 c -0.20492,-0.255 -0.742802,-1.3833 -0.686354,-1.43974 0.02965,-0.0297 0.24058,0.29764 0.468736,0.72731 0.39014,0.73472 0.484944,1.04509 0.217618,0.71243 z m 0.374253,-0.0903 c -0.115577,-0.12772 -0.182792,-0.25956 -0.149365,-0.29298 0.03343,-0.0334 0.147161,0.0711 0.252743,0.2322 0.230683,0.35207 0.1847,0.3791 -0.103378,0.0608 z m 6.843995,0.0541 c -0.111693,-0.29106 -0.07874,-0.36616 0.0577,-0.13152 0.06756,0.11618 0.09845,0.23562 0.06865,0.26542 -0.02979,0.0298 -0.08666,-0.0305 -0.126356,-0.1339 z m 0.278305,-0.2185 c -0.06544,-0.17212 -0.1155,-0.42675 -0.111239,-0.56584 0.0046,-0.14852 0.07413,-0.0398 0.168587,0.26334 0.176838,0.56757 0.132452,0.80171 -0.05735,0.3025 z m -8.264057,-0.23329 c -0.18547,-0.28306 -0.538952,-1.57104 -0.525996,-1.91657 0.0036,-0.0955 0.108097,0.1827 0.232258,0.61821 0.124162,0.4355 0.306604,0.94818 0.405428,1.13928 0.224591,0.43432 0.143928,0.54921 -0.11169,0.15908 z m 10.502798,0.0947 c 0.501426,-0.16699 1.009444,-0.40138 1.128925,-0.52086 0.364962,-0.36496 0.278763,-0.87744 -0.233805,-1.39 -0.511806,-0.5118097 -0.536978,-0.5097797 -1.680606,0.13564 -1.226926,0.69244 -1.488532,1.52676 -0.600005,1.91356 0.458585,0.19963 0.332996,0.21217 1.385491,-0.13834 z m -1.387586,-0.22553 -0.333534,-0.27276 0.34724,-0.007 c 0.190985,-0.004 0.657089,-0.13428 1.035792,-0.28996 0.405624,-0.16674 0.798002,-0.25558 0.954909,-0.2162 0.230366,0.0578 0.26742,0.0221 0.274192,-0.264 0.0075,-0.31685 0.01304,-0.3201 0.130584,-0.0768 0.148944,0.30826 0.05471,0.59713 -0.222601,0.68241 -0.11285,0.0347 -0.439568,0.1703 -0.726044,0.30133 -0.936093,0.42817 -1.092943,0.44351 -1.460538,0.1429 z m 0.584422,-1.77451 c -0.03045,-0.0305 -0.145275,0.0385 -0.255166,0.15323 -0.190903,0.19931 -0.188435,0.20178 0.05537,0.0554 0.14034,-0.0843 0.230253,-0.17816 0.199801,-0.2086 z"
       id="path1" /></g></svg>
